<?xml version="1.0" encoding="UTF-8"?>
<svg id="Réteg_1" data-name="Réteg 1" xmlns="http://www.w3.org/2000/svg" viewBox="0 0 510.47 360.94">
  <defs>
    <style>
      .cls-1 {
        fill: #0099bc;
      }
    </style>
  </defs>
  <path class="cls-1" d="M346.64,128.69c-7.5,0-15,0-22.5,0-1.53,0-2.58,.05-1.85,2.22,.56,1.68,.39,3.6,.55,5.41,.33,3.7,.88,4.25,4.51,4.27,6,.04,12,.03,18,.04,.83,0,1.73-.2,2.49,.05,4.12,1.35,7.73-.14,11.28-1.9,2-.99,4.06-1.27,6.26-1.24,5.66,.06,11.33-.08,17,.03,2.64,.05,4.39-.49,6.11-2.97,3.89-5.64,12.73-6.5,17.71-.99,5.47,6.06,3.13,14.01-2.81,17.21-5.55,2.99-10.41,1.52-14.5-3.14-1.83-2.08-3.61-2.62-6.14-3.27-6.56-1.68-12.85,1-19.28,.38-1.31-.13-2.76,.98-4.1,1.6-2.69,1.26-5.3,1.74-8.44,1.55-8.3-.49-16.65-.17-24.98-.22-1.45,0-2.2,.51-2.09,2.01,.01,.17,0,.33,0,.5,.14,8.9-1.42,7.17,6.76,7.25,9.66,.1,19.33,.07,28.99-.07,2.54-.04,4.37,.69,6.15,2.52,2.89,2.96,6.06,5.66,9.17,8.4,2.2,1.93,2.59,4.49,2.8,7.17,.22,2.84,.25,2.84,3.12,3.01,4.92,.3,5.4,.81,6.02,5.87,.16,1.3,.55,2.57,.86,3.85,.72,2.9,3.2,3.82,5.77,2.1,1.24-.83,2.4-1.77,3.61-2.64,2.46-1.77,4.51-1.75,6.67,.31,2.89,2.76,5.71,5.6,8.47,8.49,2.14,2.24,2.24,4.01,.54,6.68-.71,1.11-1.41,2.3-2.36,3.18-1.42,1.33-1.4,2.5-.87,4.35,.66,2.28,1.83,2.79,3.91,2.9,1.96,.1,3.92,.5,5.83,.97,2.16,.52,3.51,1.92,3.38,4.27-.24,4.46-.49,8.92-.92,13.36-.19,1.99-1.9,3.13-4.27,3.45-1.95,.26-3.96,.4-5.83,.95-2.83,.84-3.52,3.34-1.79,5.66,1.29,1.72,2.59,3.44,3.83,5.19,1.09,1.54,.84,3.13-.16,4.56-.66,.95-1.49,1.8-2.35,2.58-2.22,1.99-4.49,3.93-6.77,5.86-3.29,2.8-4.6,2.86-8.32,.42-1.11-.72-2.27-1.38-3.3-2.2-1.65-1.32-3.15,.09-4.7,.15-1.74,.07-1.19,1.68-1.43,2.71-.34,1.44-.62,2.89-.91,4.34-.62,3.17-2.15,4.68-5.35,4.78-3.83,.12-7.67,.13-11.5-.02-3.43-.14-4.95-1.82-5.24-5.34-.07-.83-.11-1.67-.04-2.5,.2-2.25-.54-3.72-2.81-4.61-2.21-.87-3.84-.5-5.34,1.2-.44,.5-.92,.97-1.45,1.38-3.32,2.6-5.23,2.52-8.22-.37-2.85-2.75-5.85-5.37-8.41-8.37-2.33-2.73-2.15-3.76-.03-6.48,.92-1.18,2.09-2.15,3.05-3.3,2.25-2.72,1.23-5.81-2.17-6.61-1.76-.41-3.56-.67-5.35-.94-2.78-.41-4.15-1.73-4.22-4.54-.09-3.83-.05-7.67,.02-11.5,.06-3.14,1.14-4.38,4.32-5.04,1.93-.4,3.91-.6,5.84-1.03,2.9-.64,4.19-3.92,2.54-6.42-1.18-1.8-2.54-3.48-3.68-5.3-.94-1.5-1.08-2.95,.45-4.39,3.03-2.85,5.83-5.96,8.9-8.76,2.68-2.45,3.95-2.41,7-.36,1.24,.83,2.41,1.76,3.58,2.67,2.55,1.98,5.32,1.1,6.07-1.99,.39-1.59,.69-3.22,.9-4.85,.4-3.19,1.24-4.09,4.63-4.7,2.19-.39,3.06-1.89,1.99-3.66-.51-.83-1.31-1.5-2.04-2.17-2.83-2.56-5.62-5.17-8.58-7.56-.93-.76-2.37-1.3-3.55-1.27-5.29,.14-10.56-.26-15.89,.56-4.89,.75-9.97,.17-14.97,.23-3.39,.04-3.61,.16-4.36,3.42-2.37,10.27-6.42,19.81-12.57,28.37-6.86,9.55-11.72,19.91-13.7,31.55-.3,1.78-.56,3.57-.8,5.36-.27,1.95-.53,3.91-.76,5.87-.1,.82-.26,1.68-.14,2.48,1.15,7.47,1.1,15.1,3.58,22.4,3.02,8.89,5.64,17.91,8.51,26.86,.41,1.27,1.23,2.41,.18,3.71-.97,1.2-2.01,2.23-3.75,2.05-1.91-.2-2.98-1.45-3.6-3.05-1.38-3.54-2.83-7.06-3.89-10.7-2.06-7.12-4.07-14.26-5.73-21.48-1.81-7.9-3.1-15.96-2.38-24.09,.56-6.38,1.86-12.66,3.35-18.93,2.48-10.43,8.2-19.02,13.96-27.71,5.73-8.64,9.54-18.15,11.37-28.33,1.05-5.85,1.73-11.85,1.1-17.83-1.43-13.58-4.32-26.78-12.16-38.3-7.57-11.13-17.04-20.23-29.17-26.44-9.03-4.62-18.37-8.51-28.4-9.88-9.48-1.3-19.01-1.76-28.71-.52-13.84,1.77-26.81,5.95-38.88,12.57-17.15,9.41-29.94,22.93-35.74,42.12-2.91,9.62-3.82,19.37-2.01,29.39,.73,4.06,.73,8.26-1.67,12.07-5.72,9.11-11.33,18.29-17.01,27.42-.96,1.55-2.11,2.98-3.04,4.54-1.44,2.42-.76,4.51,1.95,5.45,1.37,.48,2.94,.34,4.4,.58,2.43,.39,4.91,.66,7.26,1.36,2.84,.85,4.38,3.08,4.37,6.01-.02,2.96-.42,5.92-.67,8.88-.07,.82-.3,1.63-.32,2.45-.05,2.24,.56,2.85,2.81,3.26,1.59,.29,3.34,.4,4.67,1.18,2,1.19,1.98,2.91,.37,4.56-.35,.36-.74,.67-1.13,.98-3.25,2.52-3.48,2.71-1.12,5.6,4.51,5.53,4.11,11.71,2.68,17.94-1.84,8.01,3.7,13.8,10.64,12.81,1.31-.19,2.66-.17,3.93-.5,7.8-2.02,15.58-4.14,23.38-6.15,3.34-.86,6.71-1.67,10.11-2.28,4.27-.78,7.39,.85,8.48,4.97,1.43,5.38,2.98,10.81,1.48,16.55-.54,2.04-.15,4.31-.36,6.46-.2,1.96-.47,3.94-1.02,5.83-.63,2.15-2.45,3.39-3.95,3.11-1.57-.29-3.07-2.05-3.12-3.99-.06-1.99-.29-4.1,.23-5.97,1.38-4.94,.58-9.92,.76-14.88,.02-.64-.17-1.31-.36-1.94-.51-1.62-1.53-2.51-3.33-2.13-1.77,.37-3.58,.62-5.31,1.15-9.61,2.95-19.37,5.23-29.15,7.52-5.34,1.25-14.59-2.19-18-7.98-3.13-5.31-3.14-10.71-1.49-16.21,1.24-4.15,.58-7.45-2.64-10.34-1.95-1.75-2.96-3.99-2.71-6.67,.18-1.92-.21-3.46-1.73-4.9-2.68-2.56-2.76-5.85-1.89-9.26,.49-1.91,.98-3.82,1.32-5.76,.32-1.78-.74-3.22-2.47-3.54-2.11-.39-4.23-.66-6.34-1.05-6.61-1.24-10.73-6.42-9.85-12.72,.24-1.71,1.16-3.43,2.12-4.93,5.34-8.37,10.45-16.93,16.32-24.92,4.52-6.15,3.87-12.57,3.2-19.33-.33-3.4-.33-6.89,0-10.29,.43-4.41,1.24-8.8,2.04-13.16,1.43-7.79,5.48-14.45,9.29-21.22,5.85-10.37,14.46-18.19,24.08-24.77,8.2-5.61,17.29-9.73,26.85-12.66,6.62-2.03,13.34-3.42,20.25-4.37,8.99-1.24,17.94-1,26.86-.56,9.41,.46,18.54,3.11,27.17,6.96,7.56,3.38,14.88,7.23,21.39,12.54,8.97,7.33,16.74,15.63,22.23,25.87,2.11,3.93,3.77,8.1,5.59,12.18,.65,1.46,1.41,2.36,3.29,2.3,5.33-.15,10.66,0,15.99-.08,2.73-.04,3.1-.51,3.19-3.26,.1-2.96-.35-5.54-3.49-7.04-1.27-.61-2.26-1.95-3.18-3.12-2.52-3.24-2.49-3.33-6.36-2.26-1.58,.44-3.2,.96-4.6,1.79-1.76,1.04-2.8,.34-3.68-1.04-1.1-1.7-.83-2.87,.84-4.19,1.84-1.45,3.74-2.62,6.19-2.95,2.45-.33,4.41-1.28,5.59-4.05,1.79-4.19,5.68-6.54,9.92-7.64,5.84-1.51,14.27,3.09,14.98,11.06,.34,3.85-.44,7.27-3.49,9.92-1.38,1.2-2.78,2.39-4.06,3.69-.62,.63-1.34,1.46-1.44,2.27-.86,6.67-.63,6.88,6.17,6.9,2.17,0,4.37-.26,6.49,.07,5.68,.88,10.31-.92,14.38-4.81,2.27-2.17,4.65-4.31,7.26-6.04,2.26-1.49,2.84-3.27,2.7-5.79-.19-3.49-.11-7-.05-10.49,.03-1.81-.37-3.06-2.16-4.04-2.72-1.48-4.06-4.04-5.18-6.99-1.03-2.7-.39-4.97,.51-7.17,1.69-4.13,7.51-7.12,11.84-6.79,3.49,.27,9.12,5.36,9.81,9.05,.92,4.91-1.21,8.97-5.18,11.59-2.22,1.46-2.71,2.97-2.66,5.28,.09,4.66,0,9.33,.02,14,0,1.54-.1,2.88-1.51,3.96-5.65,4.32-11.34,8.61-16.76,13.21-1.99,1.69-3.93,2.12-6.34,2.1-7.16-.08-14.33-.03-21.5-.03v-.03Zm-2.59,120.54c.45,.48,.89,.97,1.36,1.44,3.83,3.85,3.95,3.99,8.04,.51,2.4-2.04,4.72-2.02,7.36-1.01,2,.77,3.99,1.58,6,2.33,3.27,1.21,3.88,1.9,3.97,5.37,.14,5.11-.72,4.68,4.92,4.81,2.01,.05,3.14-.43,3.05-2.71-.04-.94,.5-1.9,.66-2.86,.47-2.8,1.89-4.34,4.89-4.7,1.91-.23,3.89-.98,5.56-1.97,2.12-1.25,3.8-.61,5.52,.5,1.24,.81,2.34,1.85,3.58,2.66,.46,.3,1.43,.53,1.71,.29,1.61-1.43,3.39-2.84,4.43-4.65,.35-.61-1.31-2.37-2.07-3.6-.52-.84-1.16-1.62-1.6-2.5-1.47-2.99,1.99-12.21,5.04-13.45,.45-.18,.99-.11,1.48-.2,1.78-.32,3.58-.59,5.33-1.02,.51-.13,1.16-.68,1.28-1.15,1.12-4.34,.03-6.08-4.52-6.59-3.19-.36-5.17-1.89-6.3-4.78-.42-1.08-.85-2.18-1.46-3.15-2.08-3.34-2.25-6.19,.78-9.36,2.9-3.03,2.56-3.29-.23-6.19-.8-.83-1.36-1.9-2.04-2.88-1.37,1.21-2.06,1.96-2.88,2.51-3.24,2.2-6.55,4.14-10.39,1.16-5.77-.69-7.69-4.58-7.77-9.72-.03-2.35-1.1-2.82-3.06-2.64-.66,.06-1.33,0-2,.01-2.65,.07-2.5,.1-2.96,2.68-1.24,7-.78,7.54-7.12,8.85-.32,.07-.61,.24-.91,.38-4,1.91-7.68,1.45-11.01-1.52-.25-.22-.52-.42-.75-.66-.88-.89-1.72-.81-2.57,.05-.58,.59-1.19,1.16-1.78,1.75-2.1,2.14-2.2,2.22-.34,4.35,2.7,3.1,4.19,6.24,1.62,10.18-.62,.94-.81,2.16-1.27,3.22-1.2,2.78-2.35,5.55-6.32,5-1.06-.15-2.24,.44-3.34,.78-.42,.13-.94,.44-1.11,.81-1.48,3.28,.21,6.45,3.65,6.93,.49,.07,1,.06,1.5,.05,2.53-.09,4.03,1.2,4.78,3.51,.76,2.35,1.3,4.8,2.32,7.04,.68,1.49,.31,2.62-.4,3.69-1.45,2.19-3.07,4.26-4.66,6.45Zm.73-142.84c2.68-.06,5.82-3.14,5.84-5.73,.02-3.16-2.85-6.01-5.99-5.95-2.81,.05-5.75,2.75-5.64,5.19,.13,2.99,3.31,6.55,5.79,6.49Zm48.97,34.89c.07,2.46,1.69,4.19,3.94,4.23,2.42,.04,4.92-2.09,4.79-4.09-.15-2.14-2.69-4.79-4.47-4.68-2.55,.16-4.33,2.06-4.26,4.54Zm-4.04-56.63c2.69-.02,3.92-1.26,3.95-3.98,.02-2.47-1.92-4.14-4.66-4.02-2.17,.1-3.98,1.93-4.14,4.18-.15,2.1,2.06,3.84,4.85,3.82Z"/>
  <path class="cls-1" d="M239.65,161.79c0-3.33-.2-6.68,.06-9.99,.2-2.54-.6-4.58-2.16-6.36-2.94-3.36-5.54-7.23-9.99-8.76-2.77-.95-5.75-1.31-8.63-1.98-2.08-.48-4.27-.75-6.18-1.61-3.83-1.73-6.78-4.29-6.09-9.14,.33-2.3-.31-3.92-2.42-5.39-3.27-2.29-5.48-5.56-4.43-9.83,1.06-4.29,4.53-6.36,8.37-7.86,.6-.23,1.31-.33,1.95-.26,3.66,.39,6.7,2.13,8.57,5.2,1.93,3.17,1.76,6.71-.07,9.96-.53,.93-1.59,1.63-2.54,2.25-1.67,1.1-2.5,2.45-2.4,4.55,.15,3.19,.1,3.31,3.59,4.09,3.05,.68,6.13,1.22,9.18,1.9,1.28,.29,2.68,.54,3.73,1.25,2.49,1.7,4.41,1.28,6.5-.76,1.89-1.84,4.1-3.35,6.19-4.98,2.38-1.85,2.57-3.98,.5-6.18-.57-.61-1.16-1.21-1.83-1.69-5.04-3.66-3.2-11.15,1.23-14.06,3.46-2.27,7.26-2.47,10.87-.54,3.66,1.95,5.5,5.16,5.16,9.45-.23,2.85-1.38,5.25-3.92,6.52-2.49,1.24-3.35,3.04-3.07,5.62,.29,2.67-1.06,4.21-3.24,5.62-2.63,1.7-4.95,3.88-7.4,5.85-1.4,1.12-1.78,2.19-.28,3.67,7.52,7.42,5.78,5.75,5.91,15.81,.09,7.33,.08,14.67-.04,22-.03,2.18,.54,3.88,2.2,5.26,.51,.42,.93,.95,1.41,1.42,4.47,4.35,7.23,9.22,6.43,15.87-.53,4.44-.02,8.99-.15,13.48-.05,1.61-.33,3.35-1.04,4.77-1.33,2.63-4.5,2.5-5.91-.15-1.49-2.79-1.16-5.8-.67-8.76,.77-4.62,.83-9.18-.2-13.8-.35-1.55-.85-2.75-1.91-3.9-1.57-1.7-3-3.54-4.46-5.33-1.35-1.66-2.96-2.39-5.2-2.28-3.82,.19-7.66,.01-11.49,.08-4.91,.09-8.27-2.3-10.06-6.66-.66-1.62-1.68-2.36-3.04-2.98-3.31-1.51-6.79-2.71-9.9-4.54-3.89-2.28-8.12-2.61-12.05-1.62-4.97,1.26-9.47,.56-14.08-.89-4.14-1.3-7.86-3.29-11.38-5.93-2.59-1.94-3.67-4.1-3.63-7.12,.01-.83,.04-1.67-.03-2.5-.29-3.38-1.02-6.35-4.45-8.27-2.95-1.65-2.94-2.96-.94-5.64,.49-.66,1.09-1.28,1.73-1.8,4.24-3.48,6.07-8.2,6.62-13.44,.28-2.68,1.47-4.67,3.32-6.45,1.9-1.83,3.52-3.7,4.47-6.4,1.37-3.89,4.61-6.47,8.54-7.82,1.79-.62,3.03-1.61,4.39-2.91,3.46-3.29,7.01-6.64,11.65-8.3,1.52-.54,3.22-.58,4.79-1.01,1.72-.46,3.75-.68,5-1.75,1.86-1.6,4.14-2,6.1-3.13,5.61-3.23,11.67-3.32,17.83-3,1,.05,2.01,.08,3-.05,4.83-.62,9.22,.56,13.29,3.11,2.02,1.27,3.95,1.73,6.48,1.08,3.17-.83,6.27,.6,8.94,2.26,3.66,2.26,7.1,4.87,10.6,7.38,2.56,1.84,3.81,4.61,4.68,7.47,.6,1.98,1.61,3.12,3.56,3.69,7.98,2.36,13.69,9.49,13.48,19.8-.06,3.19-.01,6.16,2.6,8.73,1.11,1.09,1.37,3.34,1.47,5.09,.21,3.99-.01,8,.11,11.99,.07,2.19-.63,3.93-2.29,5.25-1.94,1.53-2.99,3.49-3.19,5.91-.35,4.23-3.13,6.81-6.21,9.12-2.51,1.89-5.16,3.58-7.73,5.39-2.07,1.46-3.72,3.02-3.92,5.95-.25,3.59-1.18,7.13-1.75,10.7-.86,5.36-1.68,10.73-2.5,16.1-.2,1.31-.26,2.64-.54,3.92-.29,1.28-.53,2.69-1.26,3.71-.7,.98-1.92,1.85-3.08,2.16-1.02,.27-2.77-2.11-2.81-3.64-.06-2.16-.13-4.36,.18-6.49,1.18-7.97,2.57-15.92,3.78-23.89,.57-3.74,.21-7.1-3.24-9.76-3.01-2.32-5.47-5.36-8.3-7.94-1.74-1.6-2.38-3.39-2.31-5.74,.14-5.16,.11-10.33,0-15.5-.06-2.64,.47-4.99,2.5-6.75,1.48-1.28,1.81-2.79,1.18-4.48-1.43-3.82,.81-6.43,3.14-8.7,2.46-2.39,5.77-2.54,8.88-1.43,2.28,.81,4.5,1.77,5.8,4.33,3.12,6.12-.97,13.75-7.84,14.29-1.77,.14-3.99-.13-5.13,.83-.89,.75-.15,3.2-.64,4.73-1.25,3.93-.6,7.92-.69,11.88-.02,1.02,.48,2.31,1.2,3.02,2.34,2.34,4.91,4.46,7.36,6.69,2.41,2.19,2.39,2.19,5.41,.22,2.49-1.63,5.01-3.2,7.49-4.85,2.17-1.45,3.05-4.1,2.27-6.57-.57-1.79-2.48-2.92-5.19-3.01-1-.03-2,.05-3,0-1.89-.12-3.03-1.32-3.63-2.96-.51-1.39,.8-3.54,2.55-4.36,2.7-1.25,5.5-1.05,8.23-.16,1.4,.46,2.71,1.24,4.02,1.96,1.83,1.02,3.37,.83,3.64-.89,.59-3.74,1.56-7.83-.92-11.1-3.14-4.13-4.09-8.53-3.66-13.53,.17-1.95,.05-4.04-.5-5.9-1.3-4.33-4.49-7.03-8.83-7.83-3.47-.64-5.38-2.81-6.26-5.68-1.09-3.57-2.98-6.16-6.17-8.02-1.71-.99-3.2-2.34-4.78-3.56-2.56-1.98-5.39-2.6-8.42-1.44-3.05,1.18-5.36,.11-7.77-1.72-1.8-1.36-3.92-2.41-6.05-3.15-2.61-.91-4.12,.28-4.14,3-.06,6.33,.06,12.67-.06,19-.04,2.12-.43,4.27-.97,6.33-.44,1.69-1.7,2.96-3.57,2.96-1.8,0-2.52-1.51-2.91-2.98-.33-1.26-.47-2.6-.48-3.9-.05-7,0-14-.05-21-.02-3.01-.23-3.23-3.04-3.04-1.28,.09-2.61,.43-3.78,.96-2.4,1.07-4.97,2-6.98,3.59-2.71,2.14-5.58,2.74-8.82,2.48-2.5-.2-4.54,.75-6.3,2.42-1.33,1.26-2.67,2.51-3.91,3.86-2.17,2.36-4.44,4.48-7.77,5.04-.47,.08-.99,.34-1.32,.67-.99,1.02-2.38,2-2.66,3.22-.15,.64,1.55,1.97,2.65,2.58,3.16,1.77,6.48,3.26,9.65,5.02,.95,.52,1.8,1.44,2.38,2.37,1.35,2.17,1.14,3.3-.56,4.8-1.57,1.39-3.4,1.65-4.87,.01-3.07-3.43-7.29-4.46-11.28-5.97-3.34-1.27-5.31-.38-6.71,2.77-.39,.88-.7,1.92-.63,2.86,.31,4.54-1.58,7.93-4.94,10.83-2.3,1.99-2.19,2.19-.25,4.7,1.36,1.75,2.3,3.58,2.31,5.89,.01,1.29,.71,2.57,.72,3.86,.02,3.41,2.18,5.22,4.89,6.22,3.53,1.3,7.25,2.13,10.91,3.05,.71,.18,1.59-.02,2.31-.27,7.64-2.55,14.81-1.25,21.3,3.18,2.81,1.92,4.91,2.33,7.46-.1,1.1-1.05,3.29-.92,3.24-3.23-.06-2.3,.17-4.43-1.91-6.35-8.25-7.62-5.42-6.21-15.68-6.48-3.16-.08-5.94,.08-8.71,2.49-3,2.61-7.22,2.39-10.89,.88-3.83-1.58-5.88-4.62-5.9-8.96-.02-4.61,2.57-7.54,6.3-9.35,5.53-2.69,10.62-.86,13.78,4.72,.86,1.52,1.78,2.13,3.47,2.22,3.79,.2,7.62,.34,11.34,1.04,1.98,.37,4.01,1.58,5.58,2.91,2.91,2.48,5.49,5.34,8.21,8.04,.12,.12,.24,.23,.35,.36,1.5,1.87,1.91,12.25,.37,13.89-.87,.93-2.11,1.57-3.26,2.19-1.28,.69-1.98,1.16-1.34,2.99,1.69,4.81,2.36,5.5,7.4,5.51,2.83,0,5.67-.08,8.5-.01,1.66,.04,2.42-.47,2.37-2.27-.1-3.83-.03-7.66-.03-11.5h.03Zm-52.6-24.15c-2.15,.07-3.25,1.02-3.32,2.87-.07,2,1.86,4.09,3.65,3.95,1.62-.12,3.3-2.05,3.31-3.79,0-2.07-1.23-3.11-3.64-3.04Zm22.39-24.09c2.14-.06,4.5-2.26,3.92-3.09-.77-1.1-1.95-2.2-3.18-2.62-1.42-.49-3.88,2.09-3.26,3.35,.55,1.12,1.92,1.84,2.52,2.36Zm42.19-3.49c-.01-1.4-1.39-2.5-3.08-2.44-1.47,.06-2.53,.67-2.72,2.23-.19,1.48,1.07,2.66,2.76,2.69,1.68,.03,3.04-1.08,3.03-2.49Zm17.61,23.2c-.71-.41-1.67-1.38-2.72-1.51-1.69-.2-3.1,1.34-2.56,2.69,.35,.86,1.41,1.75,2.32,2,1.21,.34,3.05-1.48,2.96-3.19Z"/>
  <path class="cls-1" d="M375.42,242.74c-12.28-.4-18.23-8.27-18.39-18.04-.18-10.59,8.38-17.99,18.12-17.95,10.86,.04,18.19,7.51,18.61,17.87,.31,7.67-7.13,18.96-18.34,18.13Zm-10.73-17.65c0,6.34,4.21,10.51,10.56,10.49,6.02-.02,11.27-5.05,11.33-10.84,.05-4.82-6-10.72-11.19-10.93-5.74-.23-10.7,5.01-10.7,11.29Z"/>
</svg>