<?xml version="1.0" encoding="UTF-8"?>
<svg id="Réteg_1" data-name="Réteg 1" xmlns="http://www.w3.org/2000/svg" viewBox="0 0 510.47 360.94">
  <defs>
    <style>
      .cls-1 {
        fill: #0099bc;
      }
    </style>
  </defs>
  <path class="cls-1" d="M104.11,143.73c6.63-4.62,13.36-7.29,20.01-10.12,1.82-.78,3.63-1.63,5.5-2.28,3.2-1.11,5.14-.76,6.8,2.1,1.95,3.36,4.89,4.86,8.33,5.7,4.13,1.02,8.17,.68,11.76-1.83,1.31-.92,2.48-2.12,3.5-3.37,2.39-2.96,4.28-3.72,7.78-2.22,5.46,2.34,11.15,4.1,16.24,7.36,3.88,2.48,8.24,4.18,12.31,6.38,1.75,.95,2.95,.68,4.46-.55,6.29-5.12,12.67-10.14,19.08-15.1,5.24-4.06,11.01-5.97,17.64-3.8,1.53,.5,2.85,.25,4.12-.93,2.55-2.37,5.24-4.58,7.85-6.89,8.57-7.59,17.13-15.19,25.66-22.82,1.99-1.78,3.8-3.75,5.77-5.53,1.47-1.33,3.01-2.61,4.64-3.73,1.85-1.27,2.72-.96,4.36,.5,1.64,1.46,.72,2.94-.07,3.99-1.38,1.85-3.11,3.46-4.85,5.01-4.95,4.41-10,8.72-14.97,13.12-6.34,5.61-12.63,11.27-18.93,16.94-1.24,1.11-2.33,2.38-3.57,3.5-1.82,1.64-2.58,3.01-1.85,5.95,1.41,5.68,.33,11.24-4.44,15.46-5.72,5.05-11.4,10.15-17.09,15.23-3.72,3.32-7.43,6.64-11.13,9.98-3.1,2.79-6.38,4.98-10.64,6.02-3.09,.75-5.58-.27-8.17-.98-3.65-1.01-7.13-2.62-10.99-4.09-.08,1.45-.23,2.86-.23,4.27-.04,12.17-.2,24.33,0,36.5,.1,6.11,.66,12.24,1.45,18.3,.22,1.69-.04,2.94-.82,4.12-1.33,2.01-4.26,1.99-5.38-.11-.75-1.4-1.09-3.11-1.25-4.72-2.06-21.08-.88-42.23-1.17-63.35-.01-.83-.07-1.68,.03-2.5,.26-2.14,2.22-3.25,4.32-2.34,4.25,1.85,8.44,3.85,12.68,5.71,7.15,3.13,10.31,2.52,15.97-2.78,2.06-1.92,4.29-3.66,6.4-5.52,6.47-5.72,12.92-11.45,19.36-17.2,.99-.89,1.99-1.81,2.78-2.87,2.07-2.79,2.07-6.15,.14-8.81-1.89-2.6-5.17-3.6-8.42-2.76-3.02,.78-5.17,2.92-7.5,4.7-6.58,5.02-13.09,10.15-19.49,15.41-1.98,1.63-3.63,1.84-5.85,.69-6.93-3.58-13.93-7.01-20.89-10.53-.59-.3-1.02-.93-1.62-1.16-4.06-1.54-7.54-3.26-12.1,.43-8.22,6.66-19.59,5.99-27.94-.88-2.17-1.78-3.75-2.12-6.15-1.05-4.68,2.08-9.49,3.86-14.15,5.97-3.16,1.43-5.38,3.95-6.3,7.33-2.42,8.9-4.71,17.83-7.03,26.75-.41,1.59-.56,3.28-1.14,4.8-1.78,4.7-1.23,9.3,1.31,13.36,6.83,10.95,13.92,21.75,21.02,32.53,2.28,3.46,5.07,4.25,8.31,3.47,5.9-1.42,6.55-6.74,4.6-10.46-3.54-6.74-7.38-13.33-11.04-20.01-2.07-3.78-4.02-7.63-6.09-11.4-.7-1.28-.61-2.46-.17-3.77,1.79-5.31,3.46-10.66,5.34-15.93,.36-1.03,1.35-1.89,2.2-2.67,1.48-1.36,3.32-.71,3.57,1.31,.16,1.3,.02,2.66-.16,3.97-.15,1.13-.58,2.23-.85,3.34-.89,3.66-2.72,7.42-2.36,10.95,.34,3.4,2.89,6.61,4.58,9.85,3.37,6.47,6.83,12.9,10.24,19.35,.7,1.32,1.4,2.64,1.99,4.01,3.1,7.21-1.12,16.06-8.67,18.23-6.98,2.01-13.06,.19-17.34-5.93-6.15-8.81-11.92-17.9-17.85-26.87-.73-1.11-1.34-2.3-2.16-3.33-5.23-6.55-5.58-13.88-3.64-21.63,1.96-7.82,3.67-15.71,5.85-23.47,1.62-5.77,1.07-11.4,.11-17.11-.6-3.57-1.42-7.12-1.68-10.71-.51-7.09-.93-14.21-.99-21.32-.14-15.66-.07-31.33,0-47,0-1.95,.47-3.91,.81-5.84,.8-4.49,3.95-6.25,8.07-6.77,1.15-.14,2.33-.04,3.5-.04,85.33,0,170.65,0,255.98,0,1.17,0,2.34-.08,3.5,.04,4.14,.42,7.75,4,8.18,8.13,.12,1.16,.05,2.33,.05,3.5,0,34-.02,67.99-.03,101.99,0,1.33,.09,2.68-.08,3.99-.25,1.87-2.19,3.58-3.68,3.44-1.35-.12-3.04-1.72-3.27-3.35-.18-1.31-.09-2.66-.09-3.99-.01-33.33-.03-66.66-.01-99.99,0-6.67,.25-6.64-6.5-6.64-84.16,.02-168.32,.02-252.48,0-7.68,0-6.94,.03-6.93,7.19,.01,18.5-.18,37,.09,55.49,.11,7.36,1.25,14.71,1.99,22.75Z"/>
  <path class="cls-1" d="M291.1,293.08c0,1.18,.03,2.18,0,3.18-.09,2.36-1.45,3.92-3.45,3.99-1.54,.06-3.37-1.6-3.66-3.5-.39-2.61-.68-5.23-.96-7.85-.39-3.61-.72-7.23-1.12-10.84-1.41-12.9-8.39-21.63-20.15-26.68-3.83-1.65-7.88-2.25-12.12-2.18-11.16,.17-22.34-.25-33.5,.15-11.62,.42-20.32,6.11-26.28,16.14-3.5,5.9-4.43,12.36-4.87,19-.25,3.79-.64,7.57-1.08,11.35-.11,.96-.56,1.92-1.04,2.78-.83,1.49-2.23,1.98-3.84,1.56-1.47-.38-2.19-1.46-2.17-2.96,.03-2.83-.09-5.68,.19-8.49,.46-4.58,1.26-9.13,1.79-13.71,.8-6.96,3.72-12.89,8.02-18.35,4.33-5.5,9.81-9.27,16.12-12.04,3.37-1.48,6.82-2.48,10.53-2.48,2.33,0,4.67,.05,7-.06,4.79-.22,9.58-.8,14.37-.75,7.29,.08,14.62,.18,21.85,1,6.49,.74,12.46,3.58,17.49,7.76,6.04,5.03,11.42,10.78,13.5,18.68,1.04,3.97,1.65,8.06,2.21,12.14,.56,4.09,.81,8.22,1.18,12.16Z"/>
  <path class="cls-1" d="M357.53,242.11c5.99,0,11.99,.11,17.98-.03,8.74-.2,15.96,3.19,22.64,8.58,6.7,5.41,11.16,12.08,13.2,20.39,.66,2.7,1.16,5.46,1.52,8.22,.72,5.55,1.33,11.12,1.9,16.7,.17,1.67-1.75,3.86-3.61,4.21-1.79,.34-2.8-.68-3.38-2.24-.29-.77-.67-1.54-.76-2.34-.73-6.22-1.35-12.45-2.12-18.66-1.25-10.13-6.17-17.95-14.99-23.19-5.38-3.19-11.09-4.76-17.5-4.55-10.81,.35-21.64,.1-32.46,.09-13.8,0-26.71,9.58-29.76,23.26-1.57,7.04-2.12,14.31-3.2,21.47-.24,1.61-.59,3.25-1.22,4.74-.57,1.36-1.93,1.74-3.38,1.49-1.5-.26-2.38-1.17-2.49-2.67-.09-1.16-.12-2.34,.01-3.49,1.02-9.16,1.28-18.44,4.12-27.3,.84-2.63,2.33-5.12,3.87-7.44,6.04-9.1,14.65-14.53,25.19-17,1.27-.3,2.65-.19,3.98-.19,6.83-.02,13.65,0,20.48,0v-.04Z"/>
  <path class="cls-1" d="M265.09,208.72c.31,15.98-13.56,30.78-31,30.75-17.69-.03-31.24-15.89-31.32-31.46-.08-15.43,14.84-31.78,32.8-30.99,14.96,.66,30.46,13.91,29.53,31.7Zm-7.16-.53c1.24-11.28-11.12-24.27-23.55-23.96-14.94,.37-24.15,11.63-24.17,23.35-.03,14.85,11.04,24.45,23.97,24.61,13.53,.17,24.37-11.21,23.74-24Z"/>
  <path class="cls-1" d="M357.42,177.13c16.9-.7,30.93,14.62,30.82,31.5-.11,16.68-15.05,31.17-31.8,30.74-15.21-.39-30.41-12.56-30.39-31.17,.01-16.06,13.41-31.88,31.37-31.07Zm23.53,30.68c.37-11.66-9.59-23.6-23.76-23.51-14.8,.09-23.82,11.44-23.82,24.07,0,15.63,12.54,23.8,23.62,23.8,12.3,0,24.3-9.46,23.96-24.35Z"/>
  <path class="cls-1" d="M120,99.29c-.57-8.76,2.17-16.31,8.71-22.26,3.98-3.62,8.67-5.76,14-6.96,9.56-2.15,17.69,.79,24.86,6.61,4.82,3.91,7.99,9.34,9.23,15.48,1.39,6.88,.94,13.66-2.32,20.14-4.23,8.39-10.93,13.71-19.9,15.91-15.21,3.72-30.15-5.17-34.5-21.95-.57-2.18-.08-4.64-.08-6.96Zm27.4-22.98c-.7,.17-2.29,.55-3.88,.92-15.28,3.59-21.21,20.17-14.44,33.24,3.66,7.07,14.86,13.74,23.9,10.9,5.25-1.65,9.77-3.68,13.02-8.26,4.02-5.67,5.14-11.67,4.08-18.61-1.69-11.16-12.57-17.89-22.69-18.19Z"/>
  <path class="cls-1" d="M289.97,190.28c-4.99,0-9.98,0-14.97,0-.83,0-1.67,.06-2.49-.06-1.76-.25-3.64-1.84-3.44-3.03,.33-1.9,1.92-1.84,3.44-2.1,11.05-1.84,22.19-.75,33.28-.92,2.93-.04,5.87,.67,8.79,1.08,1.23,.17,2.46,.73,2.18,2.12-.14,.72-1.26,1.65-2.04,1.76-3.74,.53-7.51,.99-11.29,1.15-4.48,.19-8.98,.04-13.47,.04v-.06Z"/>
  <path class="cls-1" d="M385.95,284.84c0-3,0-5.99,0-8.99,0-.83-.07-1.69,.1-2.49,.33-1.53,2.25-3.14,3.51-3.09,1.31,.05,3.06,1.68,3.4,3.23,.11,.48,.08,.99,.08,1.49,0,6.82,0,13.65,0,20.47,0,.33,.02,.67-.02,1-.25,1.92-1.8,3.67-3.36,3.79-1.69,.13-3.63-1.74-3.7-3.93-.12-3.82-.03-7.66-.03-11.48h.02Z"/>
  <path class="cls-1" d="M270.03,285.89c0,3.5,.05,7-.02,10.5-.04,2.16-1.69,3.89-3.53,3.9-1.53,0-3.32-1.74-3.51-3.64-.14-1.49-.04-3-.04-4.5,0-5.67-.05-11.33,.04-17,.02-1.08,.25-2.48,.95-3.15,.85-.83,2.45-1.64,3.45-1.39,1.59,.4,2.69,1.81,2.66,3.78-.05,3.83-.02,7.67-.02,11.5h.01Z"/>
  <path class="cls-1" d="M329.03,285.75c0,3,0,6,0,8.99,0,.83,.07,1.69-.11,2.49-.35,1.58-2.21,3.11-3.53,3.05-1.35-.07-3.36-1.66-3.38-3.21-.1-7.82-.11-15.65,.03-23.47,.03-1.85,2.31-3.52,3.77-3.29,1.51,.25,3.14,2.06,3.19,3.96,.1,3.83,.03,7.66,.03,11.49Z"/>
  <path class="cls-1" d="M206.03,285.71c0,3,0,5.99,0,8.99,0,.83,.06,1.69-.11,2.49-.33,1.53-2.23,3.11-3.53,3.07-1.36-.04-3.03-1.62-3.4-3.22-.04-.16-.05-.33-.05-.5,0-7.49-.04-14.98,.04-22.47,.02-1.75,2.04-3.54,3.56-3.51,1.6,.04,3.26,1.76,3.45,3.66,.08,.82,.03,1.66,.04,2.5,0,3,0,5.99,0,8.99Z"/>
</svg>