<?xml version="1.0" encoding="utf-8"?>
<!-- Generator: Adobe Illustrator 26.5.0, SVG Export Plug-In . SVG Version: 6.00 Build 0)  -->
<svg version="1.1" id="Layer_1" xmlns="http://www.w3.org/2000/svg" xmlns:xlink="http://www.w3.org/1999/xlink" x="0px" y="0px"
	 viewBox="0 0 4000 4000" style="enable-background:new 0 0 4000 4000;" xml:space="preserve">
<style type="text/css">
	.st0{fill:#FFFFFF;}
</style>
<g>
	<path class="st0" d="M1066.9,2661.5c-20.8-15.6-38.8-34.9-53-57c-23-35.6-35.1-76.9-35.1-119.4c0-48.1,15.2-93.9,44.1-132.3
		c20-26.6,46.1-48.5,75.6-63.8v-162.4c0-17.4,1.9-34.5,5.4-51.1l-172.2-81v612.9c0,42.2,42.3,82,117.1,117.1L1066.9,2661.5z"/>
	<path class="st0" d="M1875.8,2438.4l-575.6-270.6V2289c29.5,15.2,55.6,37.1,75.6,63.8c28.8,38.4,44.1,84.2,44.1,132.3
		c0,42.5-12.1,83.8-35.1,119.4c-14.3,22.1-32.2,41.3-53,57l44.3,154.3c171.6,29.5,381.3,46.9,607.6,46.9
		c581,0,1052-114.3,1052-255.2v-612.9l-944.1,443.9C2024.6,2469.9,1942.7,2469.9,1875.8,2438.4z"/>
	<path class="st0" d="M3450,1616.9L2091.6,978.2c-67-31.5-148.8-31.5-215.8,0L517.4,1616.9c-44.9,21.1-44.9,75.2,0,96.3L931.7,1908
		l200.5,94.3c24.8-42.5,62.1-77.6,108.1-99.2l700.4-329.3c13.5-6.4,28-9.6,42.9-9.6c38.9,0,74.8,22.8,91.3,58
		c11.5,24.4,12.8,51.8,3.6,77.1c-9.1,25.4-27.6,45.6-52,57.1l-700.4,329.3c-2.6,1.2-5,2.7-7.3,4.4l556.9,261.9
		c67,31.5,148.8,31.5,215.8,0l944.1-443.9l414.3-194.8C3494.9,1692.1,3494.9,1638,3450,1616.9z"/>
	<path class="st0" d="M1319.9,2805.4l-48-167.1c57.3-27.2,96.9-85.5,96.9-153.1c0-76.3-50.4-140.8-119.7-162v-179.4v-17.1
		c0-22,7.6-42.9,20.8-59.6c9.1-11.6,20.8-21.1,34.5-27.6l700.4-329.3c24.9-11.7,35.6-41.4,23.9-66.2c-8.5-18-26.4-28.6-45.1-28.6
		c-7.1,0-14.3,1.5-21.1,4.7l-700.4,329.3c-35.1,16.5-63.8,42.9-83.4,74.8c-13.7,22.3-23,47.4-27,73.8c-1.4,9.4-2.2,19-2.2,28.7
		v196.5c-69.3,21.3-119.7,85.8-119.7,162c0,67.6,39.6,126,96.9,153.1l-30.5,106.2l-51.1,177.9c-29.4,102.5,47.5,204.7,154.2,204.7
		l0,0c106.7,0,183.6-102.2,154.2-204.7L1319.9,2805.4z"/>
</g>
</svg>
