<?xml version="1.0" encoding="UTF-8"?>
<svg id="Réteg_1" data-name="Réteg 1" xmlns="http://www.w3.org/2000/svg" viewBox="0 0 370.74 273.06">
  <defs>
    <style>
      .cls-1 {
        fill: none;
      }

      .cls-2 {
        fill: #0099ba;
      }
    </style>
  </defs>
  <path class="cls-2" d="M169.49,103.54c0-2.42,6.19-5.94,15.88-5.94s15.88,3.52,15.88,5.94-6.19,5.95-15.88,5.95-15.88-3.52-15.88-5.95M30.6,99.96c37.47-11.68,127.46-45.55,152.02-54.85l158.9,54.25-156.16,67.75-103.12-44.75,87.07-11.49c3.8,2.33,9.48,3.78,16.05,3.78,12.01,0,21.06-4.78,21.06-11.12s-9.05-11.11-21.06-11.11c-10.35,0-18.49,3.56-20.55,8.6l-101.03,13.33-33.2-14.4ZM271.36,220.87c0,4.08-3.31,7.4-7.4,7.4H117.96c-4.07,0-7.39-3.32-7.39-7.4v-74.93l72.75,31.56c.65.28,1.35.43,2.05.43s1.41-.15,2.06-.43l83.93-36.41v79.79ZM54.82,198.08l5.34-31.6c.3-1.81-.37-3.66-1.79-4.83-.87-.74-1.38-1.81-1.38-2.96,0-2.12,1.73-3.85,3.85-3.85s3.85,1.73,3.85,3.85c0,1.19-.52,2.03-.95,2.53-.99,1.12-1.44,2.62-1.23,4.1l4.53,32.76h-12.23ZM57.87,144.8c-6.41,1.37-11.24,7.07-11.24,13.89,0,3.14,1.03,6.14,2.88,8.59l-5.93,35.12c-.26,1.5.17,3.04,1.15,4.2.99,1.17,2.44,1.83,3.96,1.83h24.28c1.5,0,2.92-.65,3.9-1.77.98-1.12,1.43-2.62,1.22-4.11l-5.05-36.61c1.3-2.18,2-4.69,2-7.25,0-5.12-2.74-9.61-6.83-12.11v-19l31.99,13.88v79.42c0,9.8,7.97,17.75,17.75,17.75h145.99c9.8,0,17.75-7.96,17.75-17.75v-84.27l76.21-33.06c1.96-.85,3.2-2.82,3.11-4.97-.09-2.13-1.48-4-3.5-4.69l-173.34-59.18c-1.15-.39-2.38-.36-3.51.06C121.35,57.24,23.89,93.06,14.84,93.6c-2.44.02-4.54,1.74-5.03,4.12-.5,2.41.75,4.83,3.01,5.81l45.05,19.54v21.72Z"/>
  <rect class="cls-1" x="9.7" y="34.43" width="351.34" height="204.2"/>
</svg>