<?xml version="1.0" encoding="UTF-8"?>
<svg id="OBJECTS" xmlns="http://www.w3.org/2000/svg" viewBox="0 0 280.34 272.26">
  <defs>
    <style>
      .cls-1 {
        fill: #00537f;
      }

      .cls-2 {
        fill: #004564;
      }

      .cls-3 {
        fill: none;
        stroke: #91e3f9;
        stroke-linecap: round;
        stroke-linejoin: round;
        stroke-width: 2.63px;
      }

      .cls-4 {
        fill: #91e3f9;
      }

      .cls-5 {
        fill: #42c6db;
      }

      .cls-6 {
        fill: #68d1ea;
      }
    </style>
  </defs>
  <path class="cls-3" d="M84.14,114.69c-8.23,0-16.45-3.14-22.73-9.42-12.55-12.55-12.55-32.9,0-45.45,12.57-12.56,32.91-12.56,45.46-.01,5.97,5.97,9.11,13.71,9.4,21.54"/>
  <path class="cls-3" d="M69.79,96.89c-7.92-7.93-7.92-20.77,0-28.7,7.93-7.93,20.78-7.93,28.71,0"/>
  <path class="cls-3" d="M188.11,154.36c8.23,0,16.46,3.14,22.74,9.42,12.56,12.56,12.56,32.91,0,45.46-12.57,12.57-32.92,12.56-45.47,0-5.97-5.97-9.11-13.71-9.4-21.54"/>
  <path class="cls-3" d="M202.47,172.16c7.92,7.93,7.93,20.78,0,28.7-7.93,7.93-20.78,7.93-28.71,0"/>
  <path class="cls-3" d="M116.29,186.53c0,8.23-3.14,16.46-9.42,22.73-12.55,12.55-32.9,12.55-45.45,0-12.56-12.56-12.56-32.91-.01-45.46,5.97-5.97,13.71-9.1,21.54-9.4"/>
  <path class="cls-3" d="M98.49,200.88c-7.92,7.92-20.77,7.92-28.7,0-7.94-7.93-7.94-20.78-.01-28.71"/>
  <path class="cls-3" d="M155.96,82.56c0-8.22,3.14-16.45,9.42-22.73,12.56-12.55,32.91-12.56,45.46,0,12.57,12.56,12.56,32.92,0,45.47-5.97,5.97-13.72,9.1-21.54,9.39"/>
  <path class="cls-3" d="M173.76,68.21c7.93-7.93,20.78-7.93,28.7,0,7.93,7.93,7.93,20.78,0,28.71"/>
  <path class="cls-2" d="M85.86,80.82s.69,.54,1.9,1.47c1.19,.96,2.93,2.28,4.95,3.94,2.02,1.66,4.41,3.57,6.91,5.67,2.51,2.09,5.16,4.35,7.8,6.62,2.62,2.29,5.23,4.58,7.68,6.73,2.45,2.15,4.68,4.22,6.62,5.96,1.93,1.75,3.49,3.25,4.61,4.28,1.1,1.05,1.72,1.65,1.72,1.65,2.63,2.51,2.72,6.68,.2,9.31-2.52,2.63-6.68,2.72-9.31,.2-.06-.06-.14-.14-.2-.2,0,0-.6-.63-1.65-1.72-1.03-1.12-2.54-2.67-4.29-4.61-1.74-1.94-3.81-4.16-5.96-6.61-2.15-2.45-4.44-5.07-6.73-7.68-2.26-2.65-4.53-5.29-6.61-7.8-2.1-2.5-4.01-4.89-5.67-6.91-1.66-2.02-2.99-3.76-3.94-4.96-.93-1.21-1.47-1.9-1.47-1.9-.82-1.07-.63-2.61,.44-3.43,.9-.69,2.13-.66,2.99,0Z"/>
  <path class="cls-2" d="M186.39,188.22s-.69-.53-1.9-1.47c-1.19-.96-2.94-2.28-4.96-3.94-2.02-1.66-4.41-3.57-6.91-5.67-2.51-2.09-5.16-4.35-7.8-6.61-2.62-2.29-5.23-4.58-7.68-6.73-2.45-2.15-4.67-4.22-6.61-5.96-1.93-1.74-3.49-3.25-4.61-4.28-1.1-1.05-1.72-1.65-1.72-1.65-2.63-2.52-2.72-6.68-.2-9.31,2.52-2.62,6.68-2.72,9.31-.2,.06,.06,.14,.14,.2,.2,0,0,.6,.63,1.65,1.72,1.03,1.12,2.54,2.68,4.28,4.61,1.74,1.94,3.81,4.17,5.96,6.62,2.15,2.45,4.44,5.07,6.73,7.69,2.26,2.64,4.53,5.29,6.61,7.8,2.1,2.5,4.01,4.89,5.67,6.91,1.66,2.02,2.98,3.76,3.94,4.95,.93,1.21,1.47,1.91,1.47,1.91,.83,1.07,.63,2.61-.45,3.43-.9,.69-2.12,.66-2.99,0Z"/>
  <path class="cls-2" d="M82.43,184.81s.53-.69,1.47-1.9c.96-1.19,2.28-2.94,3.94-4.96,1.66-2.02,3.57-4.41,5.67-6.91,2.09-2.51,4.35-5.16,6.61-7.8,2.29-2.62,4.58-5.23,6.73-7.68,2.15-2.45,4.22-4.67,5.96-6.62,1.75-1.93,3.25-3.49,4.29-4.61,1.05-1.09,1.65-1.72,1.65-1.72,2.52-2.63,6.68-2.72,9.31-.2,2.63,2.52,2.72,6.69,.2,9.31-.06,.06-.14,.14-.2,.2,0,0-.63,.6-1.72,1.65-1.12,1.03-2.68,2.54-4.61,4.29-1.94,1.74-4.16,3.81-6.62,5.96-2.45,2.15-5.07,4.44-7.68,6.73-2.64,2.27-5.29,4.53-7.8,6.62-2.5,2.1-4.89,4-6.91,5.67-2.02,1.66-3.76,2.98-4.95,3.94-1.21,.94-1.9,1.47-1.9,1.47-1.07,.82-2.6,.63-3.43-.44-.69-.9-.66-2.13,0-2.98Z"/>
  <path class="cls-2" d="M189.82,84.28s-.54,.7-1.47,1.9c-.96,1.19-2.28,2.94-3.94,4.96-1.66,2.02-3.57,4.41-5.67,6.91-2.09,2.51-4.35,5.16-6.61,7.8-2.29,2.62-4.58,5.23-6.73,7.69-2.15,2.45-4.22,4.68-5.96,6.61-1.75,1.93-3.25,3.49-4.28,4.61-1.05,1.09-1.65,1.72-1.65,1.72-2.51,2.62-6.68,2.71-9.31,.2-2.63-2.51-2.72-6.68-.2-9.31,.06-.06,.14-.14,.2-.2,0,0,.63-.6,1.72-1.65,1.12-1.03,2.68-2.54,4.61-4.29,1.94-1.74,4.16-3.81,6.61-5.96,2.45-2.15,5.07-4.44,7.68-6.73,2.64-2.26,5.29-4.53,7.8-6.61,2.5-2.1,4.89-4.01,6.91-5.67,2.02-1.66,3.76-2.98,4.96-3.94,1.21-.94,1.9-1.47,1.9-1.47,1.07-.83,2.61-.63,3.43,.44,.69,.9,.66,2.13,0,2.99Z"/>
  <path class="cls-1" d="M109.96,107.05h52.66c.73,0,1.32,.59,1.32,1.32v52.66c0,.73-.59,1.31-1.31,1.31h-52.67c-.73,0-1.32-.59-1.32-1.32v-52.66c0-.73,.59-1.32,1.32-1.32Z"/>
  <path class="cls-6" d="M129.43,141.56c-3.79-3.79-3.79-9.94,0-13.73,3.8-3.8,9.94-3.8,13.73,0,3.79,3.79,3.8,9.94,0,13.74-3.79,3.79-9.94,3.79-13.73,0Z"/>
  <path class="cls-4" d="M86.1,81.32c-.04,.1-.06,.17-.06,.17l.24-.24c1.75-.67,10.08-4.02,15.48-9.41,5.4-5.39,3.58-8.56,3.12-9.19l-.11-.11c-.62-.46-3.79-2.28-9.19,3.12-5.4,5.39-8.75,13.74-9.41,15.48l-.24,.24s.07-.03,.17-.06Z"/>
  <path class="cls-4" d="M83.33,84.08c.1-.04,.17-.07,.17-.07l-.24,.24c-.66,1.75-4.02,10.08-9.41,15.48-5.4,5.39-8.57,3.58-9.19,3.12l-.11-.11c-.46-.62-2.28-3.79,3.12-9.19,5.4-5.4,13.74-8.75,15.48-9.42l.24-.24s-.03,.07-.06,.17Z"/>
  <path class="cls-4" d="M186.15,187.73c.04-.1,.06-.17,.06-.17l-.24,.24c-1.74,.66-10.09,4.01-15.48,9.41-5.4,5.4-3.58,8.57-3.12,9.19l.11,.11c.62,.46,3.79,2.28,9.19-3.12,5.4-5.39,8.75-13.74,9.41-15.48l.24-.24s-.07,.02-.17,.06Z"/>
  <path class="cls-4" d="M188.92,184.97c-.1,.04-.17,.07-.17,.07l.24-.24c.66-1.75,4.01-10.09,9.41-15.48,5.4-5.4,8.56-3.58,9.19-3.12l.11,.11c.46,.62,2.28,3.79-3.12,9.19-5.39,5.4-13.73,8.75-15.48,9.41l-.24,.24s.02-.07,.06-.17Z"/>
  <path class="cls-4" d="M82.92,184.57c.1,.04,.17,.07,.17,.07l-.24-.24c-.66-1.75-4.02-10.08-9.41-15.48-5.4-5.4-8.56-3.58-9.19-3.12l-.11,.11c-.46,.63-2.27,3.79,3.12,9.19,5.4,5.4,13.74,8.75,15.48,9.41l.24,.24s-.03-.07-.06-.17Z"/>
  <path class="cls-4" d="M85.68,187.34c-.04-.1-.06-.17-.06-.17l.24,.24c1.75,.67,10.09,4.02,15.48,9.41,5.4,5.4,3.58,8.57,3.12,9.19l-.11,.11c-.62,.46-3.79,2.27-9.19-3.12-5.4-5.4-8.75-13.74-9.42-15.48l-.24-.24s.07,.03,.17,.06Z"/>
  <path class="cls-4" d="M189.34,84.52c-.1-.04-.17-.06-.17-.06l.24,.24c.66,1.75,4.02,10.09,9.41,15.48,5.4,5.4,8.57,3.58,9.19,3.12l.11-.11c.46-.62,2.27-3.79-3.12-9.19-5.4-5.4-13.74-8.75-15.48-9.41l-.24-.24s.03,.07,.06,.17Z"/>
  <path class="cls-4" d="M186.57,81.75c.04,.1,.06,.17,.06,.17l-.24-.24c-1.75-.67-10.09-4.01-15.48-9.41-5.4-5.4-3.58-8.56-3.12-9.19l.11-.11c.63-.46,3.79-2.27,9.19,3.12,5.4,5.4,8.75,13.74,9.41,15.48l.24,.24s-.07-.02-.17-.06Z"/>
  <path class="cls-5" d="M80.96,85.72c-1.76-1.76-1.76-4.6,0-6.36,1.76-1.76,4.6-1.76,6.36,0,1.76,1.76,1.76,4.61,0,6.37-1.76,1.75-4.61,1.75-6.36,0Z"/>
  <path class="cls-5" d="M191.29,183.33c1.76,1.76,1.76,4.61,0,6.36-1.76,1.76-4.61,1.76-6.36,0-1.76-1.76-1.76-4.61,0-6.36,1.76-1.76,4.61-1.75,6.36,0Z"/>
  <path class="cls-5" d="M87.33,189.71c-1.76,1.76-4.6,1.76-6.36,0s-1.76-4.61,0-6.36c1.76-1.76,4.6-1.76,6.36,0,1.76,1.76,1.75,4.61,0,6.36Z"/>
  <path class="cls-5" d="M184.93,79.38c1.76-1.76,4.61-1.76,6.36,0,1.76,1.76,1.76,4.61,0,6.36-1.76,1.76-4.61,1.76-6.37,0-1.76-1.76-1.76-4.6,0-6.36Z"/>
</svg>