<?xml version="1.0" encoding="UTF-8"?>
<svg id="Réteg_1" data-name="Réteg 1" xmlns="http://www.w3.org/2000/svg" viewBox="0 0 510.47 360.94">
  <defs>
    <style>
      .cls-1 {
        fill: #0099bc;
      }
    </style>
  </defs>
  <path class="cls-1" d="M250.23,261.22c-45.16,0-90.32-.02-135.48,.05-3.26,0-6.34-.35-9-2.24-2.14-1.52-4.21-3.13-5.02-5.95-.73-2.53-1.95-4.91-2.94-7.36-1.26-3.13-.57-5.11,2.47-6.33,6.12-2.47,12.29-4.83,18.45-7.2,3.14-1.21,3.18-1.17,3.21-4.5,.03-3.33-.07-6.67,.02-10,.08-2.84,.76-3.48,3.54-3.66,1.16-.07,2.33-.02,3.5-.02,65.99,0,131.98-.01,197.97-.02,1.17,0,2.34-.05,3.5,.02,2.71,.17,3.67,1.14,3.67,3.62,0,2.44-.98,3.43-3.71,3.58-1.66,.09-3.33,.02-5,.02-63.49,0-126.98-.01-190.47,.03-6.86,0-5.76-1.3-5.95,6.17-.05,1.91,.57,2.8,2.55,2.58,.82-.09,1.66-.02,2.5-.02,76.66,0,153.31,0,229.97,0,.83,0,1.67-.02,2.5,0,1.89,.05,3.69,.24,3.62-2.67-.02-.92,1.03-2.09,1.9-2.74,1.99-1.51,4.88-.44,4.82,2.01-.09,3.49,1.83,4.46,4.54,5.46,5.89,2.17,11.7,4.55,17.48,6.99,4.61,1.95,5.02,2.87,3.34,7.58-1.06,2.95-2.38,5.82-3.82,8.61-1.89,3.67-5.24,5.37-9.18,5.93-1.47,.21-2.99,.07-4.49,.07-44.83,0-89.65,0-134.48,0h0Zm.22-24.11v.03c-39.82,0-79.64,0-119.46,.02-1.98,0-4.1-.15-5.91,.47-5.92,2.05-11.73,4.42-17.58,6.68-.46,.18-.93,.4-1.3,.72-.3,.25-.7,.75-.63,1,1.01,3.36,2.09,6.63,5.91,8.01,3.74,1.35,7.51,.94,11.3,.58,1.47-.14,3.01-.66,4.39-.36,4.29,.93,8.47,.87,12.77,0,2.06-.42,4.3-.05,6.46,.03,4.13,.16,8.26,.53,12.39,.52,3.29,0,6.58-.67,9.87-.67,15.95-.03,31.91,.43,47.86,.6,25.61,.27,51.22,.2,76.85-.42,30.94-.75,61.92,.12,92.88,.27,.46,0,.92-.26,1.4-.36,4.05-.79,5.4-3.84,6.48-7.33,.4-1.28,.26-1.7-.86-2.16-3.97-1.63-8.03-3.1-11.86-5.02-4.3-2.16-8.75-2.67-13.48-2.66-39.15,.08-78.31,.04-117.46,.04Z"/>
  <path class="cls-1" d="M249.64,69.09c36.32,0,72.64-.02,108.97,.04,2.61,0,5.29,.35,7.83,.97,6.7,1.64,10.35,7.04,10.64,13.32,.2,4.32,.04,8.66,.04,12.99,0,1.33-.04,2.67,.01,4,.23,5.4,.44,5.61,5.66,5.61,21.16,0,42.32,0,63.48,.01,1.17,0,2.34-.06,3.5,.03,2.71,.21,4.06,1.66,4.26,4.47,.05,.66,.01,1.33,.01,2,0,25.33-.02,50.65,0,75.98,0,2.38-.19,4.45-2.07,6.35-7.73,7.8-15.34,15.71-22.87,23.69-1.88,1.99-3.87,2.71-6.57,2.7-23.33-.09-46.65-.06-69.98-.07-.67,0-1.34,.02-2-.02-2.82-.19-3.49-.83-3.68-3.58-.06-.83,0-1.67,0-2.5,0-33.99,0-67.98,0-101.97,0-.83-.04-1.67,0-2.5,.17-3.06,1.51-4.44,4.66-4.55,3-.1,6-.02,9-.02,1.83,0,3.67,.02,5.5,0,3.87-.04,4.46-.26,4.66-4,.29-5.65,.6-11.39-.09-16.97-.68-5.55-4.24-8.13-9.8-8.85-.98-.13-2-.03-3-.03-72.31,0-144.62-.02-216.93,.02-1.94,0-3.96,.29-5.82,.84-5.2,1.56-6.74,4.46-6.27,9.92,.27,3.1-.32,6.26-.37,9.39-.08,4.81-.1,9.62-.01,14.43,.08,4.47,.44,8.93,.46,13.4,0,1.01-.74,2.16-1.43,3.01-.55,.68-1.64,1.5-2.32,1.37-1.43-.26-2.9-.97-3.15-2.76-.12-.82-.1-1.66-.1-2.49-.02-2.33,.04-4.67-.03-7-.26-9.29-.52-18.57-.84-27.86-.12-3.55,.82-6.9,2.01-10.13,1.59-4.33,5.07-6.93,9.35-8.18,2.49-.73,5.2-1.01,7.81-1.02,36.49-.06,72.98-.04,109.46-.04h0Zm104.37,94.33c0,1.33,0,2.67,0,4,0,14.49,0,28.99,.02,43.48,0,2.97,.08,3.04,3.03,3.06,7,.05,13.99,.04,20.99,.04,12.99,0,25.99,0,38.98,.01,4.04,0,3.97,.2,3.95-3.67-.02-5.66,.13-11.33-.07-16.99-.09-2.5,.84-4.27,2.8-5.41,1.06-.62,2.5-.79,3.77-.8,5.66-.08,11.33-.06,16.99,0,1.62,.02,2.56-.42,2.4-2.23-.07-.83,0-1.66,0-2.5,0-21.16,0-42.31,0-63.47,0-1-.03-2,0-3,.02-1.23-.54-1.83-1.78-1.82-1.33,.01-2.67-.02-4-.02-20.32,0-40.65,.03-60.97-.04-3.12-.01-6.24-.6-9.37-.7-2.82-.1-5.64,.05-8.46,.19-1.97,.09-4.02,.78-5.87,.41-2.13-.43-2.44,.08-2.43,2.01,.06,15.83,.03,31.65,.03,47.48Zm74.98,45.32c2.49-2.94,4.23-5.12,6.1-7.18,1.83-2.01,3.81-3.89,6.15-6.26-1.95-.14-3.31,.15-4.2-.36-2.39-1.4-4.51,.18-6.73,.3-.47,.02-1.25,1.06-1.27,1.65-.12,3.59-.06,7.19-.06,11.85Z"/>
  <path class="cls-1" d="M197.95,157.33c-1.42,7.79,1.45,16.62,4.14,25.48,.29,.95,.8,1.86,.88,2.82,.14,1.61,.69,3.41-.83,4.69-1.73,1.45-4.16,1.51-5.59,.39-2.44-1.92-4.13-.87-6.21,.24-1.21,.64-2.59,1.78-4.03,.14-1.17-1.33-2.59-2.17-1.72-4.59,1.99-5.54,2.56-11.56,5.85-16.67,.41-.63,.39-1.6,.39-2.41,.06-9.66,.02-19.33,.17-28.99,.03-1.76-.9-2.38-2.14-2.9-5.18-2.17-10.39-4.28-15.58-6.42-.92-.38-1.9-.67-2.72-1.19-2.4-1.52-2.41-5.18-.05-6.71,.69-.45,1.48-.76,2.25-1.06,12.74-5.04,25.48-10.08,38.22-15.11,10.9-4.3,21.83-8.53,32.7-12.91,3.16-1.27,5.99-.98,9.07,.27,10.71,4.35,21.52,8.44,32.24,12.76,8.73,3.52,17.37,7.3,26.09,10.85,3.66,1.49,7.41,2.75,11.15,4.01,2.63,.89,3.71,2.14,3.87,4.48,.17,2.57-1.54,3.48-3.45,4.26-6.88,2.79-13.73,5.68-20.69,8.28-3.21,1.2-4.11,3.13-3.99,6.42,.24,6.49,.07,12.99,.06,19.49,0,6.02-.22,6.32-6.31,8.33-5.95,1.96-11.93,3.82-17.86,5.82-4.38,1.47-8.8,2.87-13.02,4.73-3.31,1.46-6.36,3.52-9.45,5.43-2.1,1.3-4.13,1.48-5.93-.21-3.86-3.64-8.69-5.31-13.53-7.02-8.24-2.91-16.48-5.85-24.71-8.78-4.39-1.56-5.29-2.72-5.33-7.13-.05-6.66-.05-13.33-.04-19.99,0-1.54-.1-2.96-1.41-4.07-.91-.77-2.02-.6-2.21,.59-.23,1.47-.28,2.97-.29,4.46-.04,3.5-.01,7-.01,12.19Zm115.52-32.76c-4.42-1.77-7.78-3.12-11.15-4.46-9.2-3.67-18.4-7.35-27.6-11.02-7.51-3-15.05-5.93-22.53-8.99-3.27-1.34-6.35-1.32-9.59,.15-3.91,1.77-7.93,3.3-11.92,4.87-6.75,2.66-13.54,5.24-20.29,7.92-9.66,3.83-19.3,7.73-28.74,11.51,3.01,1.27,6.22,2.56,9.38,3.98,3.66,1.64,7.22,2.89,11.17,.66,1.38-.78,3.19-.79,4.76-1.26,10.56-3.2,21.1-6.46,31.67-9.64,2.68-.81,5.4-1.47,8.13-2.06,1.93-.42,3.76,.87,4.73,2.79,.99,1.96-.56,2.79-1.58,3.68-.81,.71-1.98,1.11-3.06,1.38-2.22,.58-4.53,.85-6.74,1.48-7.92,2.25-15.82,4.56-23.71,6.93-2.46,.74-4.84,1.75-7.91,2.87,11.45,4.76,22.07,9.31,32.81,13.57,6.88,2.73,6.89,2.37,14.46-.8,13.86-5.81,27.8-11.41,41.72-17.09,5.04-2.06,10.09-4.09,16-6.47Zm-22.6,17.41c-3.13,1.11-5.76,1.94-8.33,2.96-8.73,3.47-17.45,7-26.16,10.53-2.29,.93-4.61,1.83-6.82,2.92-1.5,.74-2.7,.58-4.22-.06-9.28-3.89-18.61-7.64-27.94-11.41-2.14-.86-4.34-1.55-6.49-2.38-1.35-.52-1.84,.02-1.84,1.29,0,5.32,.09,10.65-.03,15.97-.04,1.72,.87,2.42,2.15,2.9,3.86,1.45,7.76,2.79,11.62,4.22,8.32,3.1,17.11,5.1,24.55,10.28,1.11,.77,1.98,.84,3.09-.09,1-.84,2.23-1.41,3.41-2.02,9.57-4.96,19.91-7.86,30.13-11.07,1.73-.54,3.52-.91,5.16-1.65,.73-.33,1.62-1.36,1.64-2.08,.13-6.62,.07-13.24,.07-20.33Z"/>
  <path class="cls-1" d="M124.21,138.02c8.65,0,17.31-.02,25.96,0,4.54,.02,8.47,1.58,11.36,5.14,2.35,2.91,3.38,6.48,3.41,10.12,.13,12.15,.08,24.3,0,36.45-.05,8.46-7.22,15.39-15.64,15.38-16.81-.02-33.62,0-50.43,0-8.82,0-15-6.45-15.02-15.06-.02-12.65,.18-25.3-.09-37.95-.13-6.22,6.44-14.24,13.97-14.12,8.82,.14,17.64,.03,26.46,.03Zm-33.19,33.07h-.01c0,6.33-.09,12.67,.03,19,.08,4.32,1.76,6.34,5.89,7.43,1.26,.33,2.61,.39,3.93,.41,3.5,.05,7.05,.39,10.48-.1,3.49-.5,6.85,.21,10.27,.16,7.83-.13,15.67,.02,23.5-.08,2.29-.03,4.58-.51,6.86-.83,2.56-.36,4.21-1.94,4.9-4.32,.54-1.88,.93-3.87,.95-5.82,.1-8.33,.04-16.66,.04-25,0-2.83,.22-5.69-.05-8.49-.47-4.79-3.09-8.43-8.49-8.36-16.5,.22-33,.23-49.49-.04-4.9-.08-9.22,3.82-8.88,9.06,.36,5.64,.08,11.33,.08,16.99Z"/>
  <path class="cls-1" d="M249.92,246.24c-8.49,0-16.99-.02-25.48,.02-1.93,.01-3.63-.24-4.81-1.99-.98-1.46-.9-3.05,.66-3.83,1.43-.71,3.11-1.27,4.69-1.28,16.98-.11,33.97-.11,50.96-.09,3.44,0,4.72,1.54,4.12,4.54-.3,1.48-1.17,2.39-2.66,2.53-1.16,.11-2.33,.07-3.49,.07-7.99,0-15.99,0-23.98,0Z"/>
  <path class="cls-1" d="M400.39,157.23c-7.97,0-15.94,0-23.91,0-1,0-2,.04-2.99-.02-2.34-.16-3.31-.9-3.59-2.63-.27-1.69,.92-3.72,2.67-4.29,.76-.25,1.63-.24,2.45-.24,16.94-.02,33.87,0,50.81-.03,1.53,0,2.96,.04,4.08,1.32,.94,1.09,1.5,2.17,.74,3.58-.63,1.18-1.17,2.3-2.87,2.28-4.98-.06-9.96,0-14.94,.01-4.15,0-8.3,0-12.45,0h0Z"/>
  <path class="cls-1" d="M399.99,170.97c7.97,0,15.94,0,23.92,0,1,0,2-.05,2.99,.03,2.17,.19,4.12,1.93,4.08,3.57-.03,1.6-2.05,3.36-4.16,3.55-.82,.08-1.66,.03-2.49,.03-15.78-.01-31.56-.02-47.33-.04-1.33,0-2.69,.11-3.97-.14-1.96-.39-3.39-2.64-3.09-4.48,.27-1.66,1.3-2.5,3.66-2.51,8.8-.05,17.6-.02,26.41-.02Z"/>
  <path class="cls-1" d="M398.63,137.11c-7.66,0-15.32,0-22.98,0-1.67,0-3.3,.08-4.61-1.33-1.01-1.09-1.41-2.26-1.04-3.64,.4-1.47,1.48-2.12,2.98-2.13,.83,0,1.67-.03,2.5-.03,15.49-.02,30.98-.03,46.47-.04,1.81,0,3.67-.27,5.01,1.5,.79,1.04,1.19,1.88,.22,3.06-1.47,1.78-3.13,2.69-5.57,2.65-7.66-.14-15.32-.05-22.98-.05h0Z"/>
  <path class="cls-1" d="M389.37,198.23c-5.14,0-10.29,.05-15.43-.02-2.89-.04-4.06-1.04-4.07-3.15-.01-2.17,1.62-3.84,4.21-3.93,3.81-.12,7.63-.04,11.45-.04,5.97,0,11.95-.07,17.92,.05,1.39,.03,2.91,.44,4.13,1.11,1.44,.79,1.83,2.35,1.31,3.92-.47,1.41-1.6,2.03-3.08,2.04-1.16,0-2.32,.03-3.48,.03-4.31,0-8.63,0-12.94,0h0Z"/>
  <path class="cls-1" d="M112,165.38c0-1.83-.06-3.66,.01-5.49,.2-5.37,3.38-7.12,7.84-4.32,6.16,3.86,12.31,7.71,18.46,11.57,3.78,2.37,3.66,5.14-.13,7.45-6.48,3.95-12.89,8.04-19.33,12.06-3.38,2.11-5.76,.97-6-2.95-.36-6.1-.62-12.21-.92-18.32,.02,0,.04,0,.07,0Zm8.01-.54c.04,4.5-.23,8.16,.23,12.28,2.91-1.77,5.33-3.17,7.67-4.68,1.28-.82,1.26-1.96,.02-2.77-2.33-1.53-4.76-2.91-7.92-4.82Z"/>
</svg>