<?xml version="1.0" encoding="UTF-8"?>
<svg id="OBJECTS" xmlns="http://www.w3.org/2000/svg" viewBox="0 0 600 500">
  <defs>
    <style>
      .cls-1 {
        fill: #0099ba;
      }
    </style>
  </defs>
  <path class="cls-1" d="M262.53,185.13c-3.69,6.38-7.07,12.23-10.68,18.47,2.24,1.57,4.52,3.16,6.81,4.75,13.66,9.48,27.34,18.96,40.99,28.46,1.68,1.17,4.28,2.08,2.42,4.94-1.25,1.91-3.71,2.15-6.15,.5-13.35-9.06-26.65-18.19-39.98-27.29-2.59-1.77-5.2-3.51-8.21-5.54-2.47,3.93-4.74,7.53-7.23,11.51,1.85,1.36,3.39,2.55,5,3.66,18.74,12.98,37.48,25.94,56.22,38.91,.82,.57,1.65,1.12,2.45,1.72,1.29,.95,2.57,2.3,1.21,3.67-1.11,1.12-2.98,1.87-4.57,1.97-1.07,.07-2.26-1.22-3.35-1.98-18.63-12.84-37.24-25.69-55.87-38.52-1.49-1.03-3.08-1.9-4.84-2.97-2.59,3.49-5.06,6.8-7.53,10.12-.53-.45-1.06-.9-1.59-1.35,.6,1.33,1.27,2.63,1.78,3.99,2.29,6.16,1.21,11.84-2.84,16.87-4.31,5.35-10.59,6.14-16.99,2.11-9.99-6.3-19.86-12.77-29.79-19.17-7.97-5.14-15.97-10.23-23.89-15.43-7.68-5.04-9.02-14.15-3.27-21.18,2.6-3.18,5.96-4.74,10.01-4.74,2.14,0,4.28,.27,6.1,.39,6.66-12.83,15.17-24.3,22.99-36.19,3.36-5.1,7.01-10.02,10.83-15.44-.32-.74-1.05-2.24-1.6-3.8-2.14-6.05,.08-13.05,5.3-16.92,4.91-3.64,10.49-3.37,16.21,.42,16.9,11.23,33.85,22.39,50.82,33.51,3.27,2.15,6.25,4.39,7.17,8.5,1.96,8.76-6.01,17.68-14.91,16.62-1.15-.14-2.28-.43-3.02-.58Zm-41.39,44.56c4.83,.02,6.94-2.15,8.73-4.95,7.26-11.33,14.6-22.61,21.85-33.95,3.57-5.59,3.04-8.32-2.46-12.09-6.72-4.6-13.54-9.05-20.33-13.54-4.85-3.21-9.67-6.48-14.6-9.56-4.5-2.8-8.05-2.04-11.26,2.15-.71,.92-1.3,1.93-1.95,2.9-6.01,8.97-12.03,17.94-18.02,26.93-1.66,2.49-3.36,4.97-4.73,7.61-1.81,3.5-1.26,5.94,1.82,8.32,2.22,1.73,4.69,3.14,7.05,4.69,9.3,6.12,18.57,12.29,27.92,18.34,2.19,1.42,4.63,2.44,5.99,3.13Zm-57.71-25.14c-3.09,.55-5.88,2.64-6.98,5.63-1.17,3.17-.29,6.17,2.77,8.26,4.66,3.19,9.44,6.21,14.18,9.29,12.81,8.34,25.61,16.7,38.44,25,3.83,2.48,6.84,2.5,9.12,.34,2.59-2.45,3.52-7.36,1.88-10.62-.59-1.17-1.36-2.32-2.3-3.23-1.54-1.49-3.18-2.94-4.96-4.13-12.59-8.38-25.08-16.9-37.92-24.88-4.27-2.65-9.47-3.82-14.24-5.66Zm103.26-24.62c1.29-.44,2.46-.65,3.43-1.22,5.26-3.05,5.3-8.4,.03-11.87-15.27-10.07-30.59-20.07-45.9-30.08-2.5-1.64-4.95-3.39-7.58-4.79-3.54-1.89-6.38-.94-8.43,2.49-2.41,4.03-1.58,7.81,2.71,10.73,6.87,4.68,13.83,9.23,20.81,13.75,9.49,6.14,19,12.26,28.58,18.25,1.94,1.21,4.23,1.85,6.35,2.74Z"/>
  <path class="cls-1" d="M459.17,232.83c-1.06,17.82-3.38,35.41-8.61,52.57-7.14,23.44-21.2,41.59-41.49,55.03-5.4,3.58-11.02,6.85-16.63,10.1-3.72,2.16-7.74,2.17-11.48,.16-15.53-8.3-29.77-18.29-40.9-32.19-9.88-12.34-15.57-26.59-19.21-41.81-4.23-17.7-6.68-35.64-7.46-53.81-.3-7,.51-8.03,7.31-9.45,21.79-4.56,41.86-13.03,59.94-26.09,3.68-2.66,5.89-2.67,9.53-.11,19.05,13.4,39.95,22.43,62.86,26.79,5.09,.97,6.34,2.59,6.55,7.83,.07,1.83-.02,3.66-.09,5.49-.07,1.83-.21,3.66-.32,5.48Zm-138.55-12.25c0,2.35-.17,4.03,.03,5.65,1.49,12.2,2.9,24.42,4.64,36.59,1.53,10.72,4.14,21.22,8.39,31.23,9.94,23.44,28.21,38.56,50.15,50.02,2.09,1.09,3.83,.67,5.62-.4,6.14-3.65,12.5-6.99,18.36-11.04,14.97-10.35,26.32-23.67,33.06-40.86,7.52-19.17,10.22-39.16,11.26-59.5,.18-3.61,.03-7.24,.03-11.12-24.15-5.11-46.49-13.71-66.48-28.37-19.54,14.16-41.32,22.81-65.05,27.8Z"/>
  <path class="cls-1" d="M250.26,332.51c4.12,0,7.26-.08,10.4,.02,5.87,.18,9.63,3.94,9.74,9.74,.05,2.66,0,5.32-.09,7.98-.15,4.13-.8,4.75-5.07,5.03-1.33,.09-2.66,.09-3.99,.09-41.58,0-83.16,0-124.74-.02-3.16,0-6.32-.11-9.47-.32-3.72-.24-4.37-.9-4.52-4.47-.11-2.82-.14-5.66-.02-8.48,.25-5.63,3.84-9.18,9.54-9.42,3.29-.14,6.6-.03,10.68-.03,0-3.35-.03-6.26,0-9.18,.09-6.75,3.01-9.71,9.78-9.72,29.61-.03,59.21-.04,88.82-.02,6.04,0,8.78,2.78,8.91,8.85,.07,3.12,.01,6.24,.01,9.96Zm-120.73,15.89h133.94c1.35-7.68,.36-9.31-5.63-9.31-41.06-.02-82.11-.01-123.17,.02-5.11,0-6.08,1.16-5.67,6.33,.08,.97,.34,1.92,.54,2.96Zm113.66-27.34c-6.8-1.38-89.69-1-93.37,.34v10.69h93.66c0-2.75,.03-5.06-.01-7.37-.02-1.14-.17-2.27-.28-3.66Z"/>
  <path class="cls-1" d="M381.7,283.2c12.12-12.33,23.9-24.26,35.63-36.25,2.96-3.02,4.82-3.8,6.64-2.32,1.94,1.58,1.5,4.09-1.53,7.2-12.3,12.61-24.63,25.19-37,37.72-3.05,3.09-4.95,2.95-7.96-.13-7.31-7.49-14.64-14.96-21.95-22.45-.81-.83-1.69-1.62-2.38-2.54-1.14-1.53-1.24-3.42,.39-4.37,1.18-.68,3.05-.61,4.47-.28,.97,.23,1.73,1.47,2.54,2.3,6.07,6.15,12.13,12.31,18.2,18.45,.81,.81,1.7,1.54,2.95,2.67Z"/>
</svg>