<?xml version="1.0" encoding="UTF-8"?>
<svg id="Réteg_1" data-name="Réteg 1" xmlns="http://www.w3.org/2000/svg" viewBox="0 0 510.47 360.94">
  <defs>
    <style>
      .cls-1 {
        fill: #0099bc;
      }
    </style>
  </defs>
  <path class="cls-1" d="M115.87,210.44c1.7-.16,2.85-.35,3.99-.36,8.5-.04,17-.05,25.5-.06,.67,0,1.35-.06,2,.05,2.15,.36,3.6,2.1,3.5,4.14-.1,2.01-1.12,2.93-3.75,2.94-8.67,.05-17.33,0-26,0-1.17,0-2.36-.16-3.49,.05-.62,.11-1.61,.85-1.61,1.29,.06,3.63-.12,7.35,.6,10.86,.94,4.57,3.91,6.62,8.55,6.68,6.17,.08,12.33,0,18.5,0,1,0,2.01-.06,3,.02,2.59,.21,4.17,1.77,4.17,4.01,0,2.26-1.57,3.93-4.17,3.97-6.16,.1-12.33,.12-18.5,0-2.29-.04-4.6-.39-6.83-.9-6.74-1.53-12.18-8.07-12.55-14.91-.04-.83-.01-1.67-.01-2.5,0-51.83,0-103.66-.04-155.5,0-6.97,2.12-12.74,8.53-16.16,1.98-1.05,4.32-1.46,6.52-2.04,.78-.21,1.66-.06,2.49-.06,28.17,0,56.33,.18,84.5-.12,10.47-.11,17.93,7.64,17.98,18.16,.08,17.33,.02,34.67,.05,52,0,2.14,.2,4.28,.31,6.42,2.27,.19,4.55,.54,6.82,.55,9.83,.06,19.67,.03,29.5,0,1.71,0,3.28,.02,4.33,1.76,1.37,2.25,.52,4.76-2.09,5.31-1.28,.27-2.65,.12-3.99,.12-29.67,0-59.33-.02-89,.04-2.12,0-4.26,.39-6.34,.85-3.64,.81-5.12,2.54-5.43,6.01-.08,.83-.01,1.67-.01,2.5,0,30.83,0,61.67-.01,92.5,0,.67-.02,1.33,0,2,.09,2.9,.09,2.92,3.13,2.98,2.17,.04,4.33,.02,6.5,.02,41.5,0,83-.01,124.5,.03,2.13,0,4.25,.44,6.38,.63,.99,.09,1.99,.16,2.98,.11,3.96-.23,7.91-.72,11.87-.74,20.5-.08,41-.04,61.5-.05,1.17,0,2.34-.05,3.5,0,1.5,.07,2.6-.19,2.67-2.07,.04-.96,.66-1.91,.67-2.87,.06-6.67,.64-13.4-.13-19.98-.84-7.16-.38-14.26-.61-21.39-.05-1.44,.36-2.92,.76-4.33,.52-1.86,1.87-2.75,3.79-2.41,1.82,.32,2.92,1.55,3.3,3.3,.2,.96,.09,1.99,.09,2.99,0,20.33-.03,40.67,0,61,0,4-1.43,7.5-3.57,10.66-2.29,3.38-5.94,4.62-9.85,5.08-1.32,.15-2.66,.04-4,.04-21.17,0-42.33,0-63.5,0-1.33,0-2.67,.02-4,.02-1.39,0-2.05,.21-1.64,2.03,1.06,4.65,1.88,9.36,2.61,14.07,.25,1.63,1.12,1.77,2.38,1.77,5.67-.02,11.33-.02,17-.02,1.17,0,2.34,.08,3.5,.01,1.77-.1,2.34,1.25,2.69,2.46,.45,1.57-.3,3.05-1.81,3.57-1.69,.58-3.54,.98-5.32,.98-29.33,.06-58.67,.05-88,.02-1.14,0-2.28-.35-3.43-.37-2.12-.04-4.24,.02-6.36,.07-4.48,.09-8.96,.23-13.44,.27-.61,0-1.23-.44-1.85-.67-1.64-.62-2.48-2.27-2.11-3.51,.35-1.14,1.93-2.13,3.19-2.69,.98-.43,2.29-.11,3.46-.12,5.33,0,10.67-.02,16,0,1.82,.01,2.89-.74,2.87-2.62-.04-4.71,1.61-9.07,2.74-13.53,.26-1.03,.09-1.61-1.01-1.67-1.33-.06-2.66-.07-4-.07-21.83,0-43.67-.01-65.5,.02-3.21,0-6.16-.49-8.98-2.25-4.04-2.53-5.64-6.28-6.17-10.72-.12-.99-.03-2-.03-3,0-37.17,.03-74.33,0-111.5,0-3.2,.33-6.23,1.98-9.07,3.18-5.5,8.3-7.44,14.19-7.49,14.33-.14,28.67-.06,43-.06q5.95,0,5.95-6.19c0-10.83,0-21.67-.02-32.5,0-4.3,.33-4.12-4.02-4.12-19.17,0-38.33,0-57.5,0-12.67,0-25.33,0-38,0q-5.42,0-5.43,5.66c0,9,0,18,0,27,0,28.83,0,57.67,0,86.5,0,1.65,0,3.3,0,5.09Zm158.47,55.49h0c33.81,0,67.62,.01,101.44-.05,2.27,0,4.59-.44,6.8-1,2.14-.54,3.25-2.15,3.23-4.45-.01-2.5-.31-5.07,.19-7.47,.38-1.81-.07-1.94-1.52-1.96-12.12-.13-24.23-.05-36.35-.67-12.46-.64-24.98-.19-37.47-.1-3.46,.03-6.91,.57-10.36,.7-1.8,.07-3.62-.2-5.42-.36-.98-.09-1.96-.36-2.94-.37-5.83-.03-11.66-.11-17.49,.02-3.79,.08-7.57,.64-11.36,.67-2.95,.02-5.91-.68-8.86-.67-10.45,.04-20.9-.26-31.36,.65-4.89,.42-9.9-.6-14.85-.64-12.16-.11-24.32-.11-36.48,.02-2.75,.03-5.48,.78-8.22,1.2-.14,2.79-.46,5.59-.37,8.37,.1,3.3,1.26,4.63,4.58,5.52,1.57,.42,3.25,.56,4.89,.56,33.98,.03,67.96,.02,101.94,.02ZM168.25,79.05c16.15,0,32.29,0,48.44,0,3.56,0,3.62-.02,4.32-3.47,.36-1.76,.72-3.6,.6-5.38-.48-6.87-2.58-11.36-11.33-11.14-.5,.01-1,0-1.5,0-26.97,0-53.93,0-80.9,0-1.17,0-2.34-.08-3.49,.04-3.74,.41-6.35,2.16-7.71,5.92-1.36,3.77-.58,7.57-.74,11.35-.11,2.58,.07,2.6,2.87,2.68,1.16,.03,2.33,0,3.5,0,15.31,0,30.63,0,45.94,0Zm105.65,211.91c1.5,0,2.99,0,4.49,0,7.32,0,14.64-.03,21.96,0,1.59,0,2.71-.39,2.32-2.21-.98-4.66-1.99-9.32-3.18-13.93-.18-.7-1.34-1.31-2.18-1.63-.73-.28-1.64-.1-2.47-.1-13.81,0-27.61,0-41.42,0-.83,0-1.72-.14-2.47,.11-.7,.24-1.63,.81-1.81,1.42-1.19,4.1-2.51,8.2-3.19,12.39-.61,3.82-.28,3.91,3.5,3.93,8.15,.03,16.3,0,24.45,0Z"/>
  <path class="cls-1" d="M289.27,168.3c.66-1.52,.99-3.01,1.84-4.11,2.02-2.62,4.25-5.09,6.47-7.54,.9-.99,1.26-1.79,.46-3.05-.61-.96-1.02-2.1-1.28-3.21-.58-2.45-1.89-3.44-4.53-3.42-2.95,.02-5.9-.55-8.84-.97-3.93-.56-5.58-2.63-5.76-6.71-.19-4.46-.53-8.91-.8-13.36-.02-.33,0-.67,0-1-.17-4.24,.62-7.66,7.26-8.81,2.92-.5,5.88-.88,8.84-1.05,1.67-.1,2.86-.45,3.43-2.16,.26-.78,.64-1.55,1.11-2.22,1.62-2.32,.94-4.26-.78-6.18-1.88-2.1-3.65-4.29-5.46-6.45-2.29-2.75-2.25-5.76,.31-8.39,3.6-3.7,7.27-7.34,11.01-10.89,3.11-2.96,5.21-3.23,8.8-.92,2.07,1.33,3.87,3.1,5.73,4.75,2.03,1.81,4.14,1.98,6.64,.94,5.68-2.36,5.66-2.3,6.1-8.5,.16-2.29,.53-4.59,1.01-6.84,.4-1.89,2.17-3.16,4.46-3.25,2.83-.11,5.67,.05,8.49-.07,3.29-.14,6.58-.43,9.86-.72,2.95-.26,5.91,2.14,6.22,5.15,.34,3.28,.72,6.56,.96,9.85,.11,1.54,.76,2.4,2.2,2.93,2.01,.74,3.93,1.73,5.96,2.41,.61,.2,1.6-.08,2.15-.49,2.23-1.72,4.31-3.63,6.53-5.36,4.85-3.79,7.52-2.86,10.42,.12,3.48,3.58,7.11,7.02,10.6,10.6,2.62,2.68,2.92,3.85,1.02,7.02-1.78,2.96-3.89,5.78-6.21,8.35-1.63,1.8-1.99,3.31-.68,5.29,.36,.55,.78,1.17,.85,1.79,.24,2.18,1.3,3.07,3.56,3.29,3.59,.34,7.16,1.05,10.7,1.78,3.75,.78,4.77,1.92,4.86,5.63,.13,5.33,.03,10.66,.02,15.99-.01,6.39-2.75,6.73-7.17,7.49-2.92,.5-5.88,.8-8.84,1.03-1.78,.14-2.21,1.24-3.09,2.59-2.89,4.47-1.13,7.68,2.08,10.8,1.07,1.04,2.16,2.1,3.09,3.26,2.62,3.26,2.6,5.79-.16,8.9-1.66,1.86-3.52,3.55-5.29,5.31-1.86,1.85-3.7,3.72-5.61,5.52-3.34,3.14-6.26,3.22-10.05,.21-2.08-1.64-4.09-3.37-6.04-5.16-1.08-.99-1.99-1.6-3.48-.66-.95,.61-2.12,.94-3.23,1.21-3.11,.75-4.68,2.3-4.33,5.86,.23,2.39-.53,4.89-.88,7.33-.4,2.76-3.41,5.49-6.66,5.77-2.15,.19-4.33,.13-6.49,.01-3.46-.19-6.91-.57-10.37-.77-3.53-.2-4.82-1.02-5.5-4.46-.58-2.9-1.01-5.89-.99-8.83,.02-2.49-1.04-3.7-3.16-4.4-.63-.21-1.39-.19-1.89-.55-3.9-2.83-6.71-1.02-9.35,2.01-.87,1-1.85,1.94-2.92,2.71-3.04,2.18-6.9,2.23-9.65-.27-4.06-3.69-7.91-7.64-11.73-11.59-.84-.87-1.19-2.23-1.83-3.51Zm8.54-.49c2.81,2.7,5.61,5.31,8.31,8.02,1.18,1.18,2.09,1.29,3.35,.1,1.44-1.36,3.15-2.43,4.59-3.79,4.38-4.1,5.32-4.24,10.96-1.49,1.78,.87,3.59,1.75,5.48,2.28,5.57,1.59,5.91,1.98,6.45,7.71,.28,2.94,.82,5.85,1.25,8.77,2.94,.19,5.89,.56,8.83,.55,6.61-.02,5.47,.98,5.8-5.92,.1-2.13,.54-4.24,.83-6.36,.25-1.86,1.5-2.97,3.08-3.61,3.83-1.53,7.79-2.75,11.55-4.45,2.6-1.17,4.35-.51,6.2,1.35,1.75,1.76,3.72,3.29,5.65,4.85,1.99,1.62,2.44,1.64,4.22,0,1.84-1.69,3.58-3.49,5.33-5.27,2.48-2.53,2.5-2.86,.22-5.73-1.54-1.95-3.1-3.89-4.75-5.74-1.79-2.02-1.75-4.04-.73-6.43,1.3-3.02,2.31-6.16,3.37-9.28,.58-1.7,1.58-2.99,3.34-3.34,2.42-.48,4.87-.83,7.33-1.06,6.27-.59,6.35-.62,6.35-6.61,0-1.67,.02-3.33-.01-5-.06-3.08-.67-3.88-3.6-4.16-2.15-.21-4.33-.05-6.49-.14-4.14-.17-5.51-1.24-6.91-5.15-.83-2.33-1.6-4.69-2.61-6.94-2.23-4.95-1.99-6.54,1.78-10.67,1.67-1.84,3.24-3.77,4.78-5.72,.25-.32,.3-1.21,.06-1.45-2.7-2.65-5.51-5.2-8.23-7.84-.89-.86-1.49-.94-2.46-.04-2.18,2.03-4.63,3.79-6.72,5.91-2.09,2.13-4.11,2.28-6.71,1.01-3.11-1.51-6.33-2.86-9.6-3.96-3.54-1.19-4.18-1.86-4.43-5.5-.2-2.96-.65-5.9-.91-8.85-.11-1.29-.78-1.69-1.94-1.69-3.33,.01-6.67,.02-10,0-1.76-.01-2.81,.65-2.99,2.55-.26,2.62-.78,5.22-.96,7.85-.19,2.83-1.49,4.55-4.14,5.53-3.41,1.26-6.85,2.5-10.08,4.14-2.65,1.35-4.81,.84-6.92-.78-1.18-.91-2.13-2.1-3.26-3.1-.99-.87-2.07-1.64-3.11-2.46-1.39-1.09-2.68-1.09-3.98,.22-2.11,2.13-4.23,4.26-6.45,6.28-1.37,1.25-.98,2.16,.08,3.33,2,2.21,3.99,4.45,5.76,6.85,1.12,1.52,2.62,3.03,1.59,5.37-1.59,3.63-3.07,7.32-4.47,11.03-1.16,3.1-3.32,4.3-6.54,4.14-2.49-.12-5-.07-7.5,.07-2.47,.14-2.92,.59-3,3-.1,3.16,.06,6.33-.05,9.5-.06,1.72,.63,2.39,2.26,2.52,2.62,.22,5.25,.88,7.85,.76,3.97-.19,6.18,1.54,7.46,5.13,.94,2.64,2.02,5.27,3.38,7.71,1.63,2.93,1.12,5.37-.93,7.75-2.27,2.63-4.51,5.29-7.05,8.26Z"/>
  <path class="cls-1" d="M212.65,157.47c5.07,2.85,9.54,5.37,14.01,7.87,4.18,2.35,5,4.33,2.86,8.4-3.39,6.45-7.03,12.77-10.56,19.15-2.17,3.91-4.74,5.64-9.87,2.87-4.19-2.27-8.53-4.27-13.61-6.78,2.15,6.92,3.81,13.05,10.46,16.13,2.09,.97,4,2.34,6.04,3.44,4.88,2.63,9.93,2.95,15.39,1.83,3.79-.77,7.3-2.06,10.74-3.61,2.74-1.23,5.2-1.42,7.98-.13,12.16,5.66,24.39,11.17,36.57,16.78,6.02,2.77,11.99,5.64,17.98,8.48,1.05,.5,2.14,.95,3.09,1.6,.74,.51,1.3,1.29,1.94,1.95-.77,.55-1.49,1.24-2.34,1.63-2.36,1.09-4.6,1.06-7.11-.12-8.84-4.14-17.81-7.98-26.71-11.99-7.7-3.47-15.37-6.98-23.04-10.52-2.71-1.25-5.06-1.14-7.92,.18-11.41,5.27-22.73,5.22-33.58-1.78-.42-.27-.84-.53-1.29-.74-11.53-5.65-15.08-15.92-16.03-27.69-.04-.5-.06-1.01,0-1.5,.39-3.09,2.84-4.5,5.68-3.13,5.08,2.45,10.11,5.01,15.16,7.53,.89,.44,1.75,.95,2.66,1.37,1.28,.6,2.08,.23,2.76-1.1,2.27-4.42,4.71-8.76,7.01-13.17,1.33-2.55,1.29-2.85-1.19-4.35-4.39-2.65-8.88-5.16-13.33-7.71-.86-.49-1.85-.79-2.66-1.36-2.28-1.63-2.54-3.92-.61-5.89,.91-.92,2.01-1.84,3.2-2.28,5.25-1.94,10.54-3.82,15.89-5.46,1.25-.38,3.03-.1,4.22,.53,7.18,3.79,14.31,7.67,21.32,11.76,1.46,.85,2.58,2.59,3.41,4.15,2.78,5.28,4.81,10.85,5.76,16.79,.46,2.85,1.63,4.75,4.8,6.09,10.53,4.43,20.79,9.49,31.15,14.31,14.57,6.77,29.13,13.57,43.71,20.3,3,1.38,6.13,2.47,9.16,3.78,2.44,1.06,3.39,2.69,3.17,5.06-.2,2.16-1.65,3.34-3.72,2.9-.79-.17-1.54-.59-2.28-.94-10.5-4.91-20.99-9.85-31.5-14.74-10.36-4.83-20.72-9.63-31.09-14.43-8.56-3.97-17.13-7.93-25.71-11.85-2.41-1.1-3.83-2.38-4.14-5.48-.53-5.38-1.82-10.67-4.18-15.7-1.57-3.35-3.82-5.76-6.93-7.49-4.19-2.34-8.46-4.55-12.64-6.92-1.55-.88-2.99-.93-4.65-.45-2.84,.83-5.73,1.47-9.45,2.41Z"/>
  <path class="cls-1" d="M170.23,65.95c4.66,0,9.33,.01,13.99,0,1.47,0,2.55,.24,2.67,2.1,.2,3.03-.33,4.54-2.16,4.89-.97,.18-1.99,.1-2.99,.1-6.33,0-12.66,.06-18.99-.04-1.96-.03-3.91-.5-5.86-.81-.95-.15-2.34-.12-2.72-.71-.67-1.03-.83-2.45-.95-3.72-.04-.44,.6-1.26,1.07-1.38,1.1-.29,2.29-.35,3.44-.36,4.16-.04,8.33-.01,12.49-.01v-.04Z"/>
  <path class="cls-1" d="M345.72,102.9c13.95-.77,27.96,10.91,27.8,27.68-.15,15.5-10.59,28.39-28.82,28.34-16.03-.05-27.77-12.94-27.91-28.38-.13-15.76,14.21-29.03,28.93-27.63Zm20.11,28.5c.86-11.8-8.46-21.02-20.44-21.37-10.82-.32-21.02,7.6-21.26,20.29-.23,12.6,8.61,21.21,21.19,21.4,11.1,.17,21.4-9.17,20.51-20.32Z"/>
</svg>