<?xml version="1.0" encoding="UTF-8"?>
<svg id="OBJECTS" xmlns="http://www.w3.org/2000/svg" viewBox="0 0 600 500">
  <defs>
    <style>
      .cls-1 {
        fill: #0099ba;
      }
    </style>
  </defs>
  <path class="cls-1" d="M208.79,132.51v9.39c1.99,.09,3.94,.36,5.86,.23,4.37-.31,7.51,1.11,8.83,6.12,3.14-.27,6.25-.52,9.35-.81,10.13-.97,20.11-2.56,29.75-6.05,12.05-4.37,24.66-5.42,37.36-5.46,15.07-.04,29.71,1.97,44.07,7.16,10.62,3.83,22.08,4.56,33.84,4.94,1.58-7.97,8.29-5.3,13.68-6.32v-8.93c-1.46-.07-3.04-.2-4.63-.2-12.15-.02-24.31,0-36.46-.05-1.65,0-3.42,.01-4.89-.59-1-.41-2-1.8-2.18-2.88-.1-.62,1.31-1.92,2.25-2.2,1.55-.47,3.27-.48,4.93-.48,11.99-.03,23.98-.02,35.96-.01,1.63,0,3.25,0,5.2,0,.15-2.23,.24-4.01,.39-5.79,.17-2.12,1.3-3.47,3.47-3.49,2.3-.03,3.18,1.48,3.21,3.6,.03,1.64,0,3.28,0,5.68,2.35,0,4.29,0,6.22,0,12.49,0,24.98-.04,37.46,0,1.64,0,3.38,.1,4.88,.66,.86,.32,1.86,1.68,1.84,2.54-.02,.87-1.07,2.17-1.95,2.47-1.52,.52-3.26,.53-4.91,.54-12.49,.08-24.98,.09-37.46,.15-1.8,0-3.61,.16-5.72,.26v9.22c2.39,0,4.67-.09,6.94,.02,3.92,.2,5.96,1.54,6.02,5.2,.11,6.8-.01,13.66-.85,20.39-.63,5.04-4.34,8.47-9.36,9.17-4.53,.63-9.24,.45-13.83,.06-3.49-.29-5.87-2.82-7.91-5.61-.69-.95-1.92-2.11-2.92-2.13-9.77-.24-19.49,.15-29.3,3.63,5.89,5.54,11.39,10.95,14.26,18.2,1.63,4.13,2.79,8.51,3.64,12.88,.72,3.7-.58,5.76-2.91,5.81-3.14,.07-3.69-2.26-4-4.7-1.63-12.76-8.8-21.96-18.81-29.34-5.8,3.56-11.54,7.09-18.01,11.06-.5,1.69-1.12,4.45-2.14,7.05-2.3,5.87-6.33,8.49-12.66,8.52-3.66,.01-7.33,0-10.99-.01-7.75-.04-12-3.12-14.43-10.53-.57-1.73-.93-3.52-1.16-4.41-6.7-3.95-12.8-7.54-19.15-11.28-10.15,6.54-16.47,15.86-18.49,28.02-.74,4.44-2.11,6.37-4.49,5.88-2.4-.49-3.09-2.74-2.41-7.21,1.7-11.22,7.62-20.08,15.52-27.83,.57-.56,1.46-.8,3.05-1.64-6.85-2.69-12.53-3.45-18.25-3.91-2.98-.24-6-.09-8.98-.3-3.19-.22-5.56,.4-7.47,3.51-1.17,1.91-3.75,3.33-5.99,4.13-4.78,1.72-9.78,1.88-14.75,.49-5.1-1.43-8.82-4.62-9.34-9.9-.67-6.76-.58-13.62-.55-20.43,.01-2.94,2.17-4.37,4.95-4.68,2.14-.23,4.3-.25,6.85-.39v-9.06c-1.58-.12-3.03-.31-4.47-.31-12.82-.04-25.64-.03-38.46-.06-4.62,0-7.32-1.27-6.75-3.27,.95-3.37,4.06-2.91,6.64-2.92,12.65-.04,25.31,0,37.96,.02,1.63,0,3.26,0,5.29,0,.15-2.22,.29-4,.4-5.79,.13-2.16,1.19-3.5,3.41-3.48,2.3,.02,3.09,1.59,3.19,3.66,.08,1.63,.22,3.26,.38,5.57,2.21,0,4.15,0,6.09,0,11.66,.02,23.31,.02,34.97,.06,4.55,.02,6.72,1.09,6.22,3.15-.79,3.23-3.62,2.9-6.09,2.91-11.32,.06-22.64,.08-33.97,.11-2.28,0-4.57,0-7.22,0Zm14.61,29.69c1.9,.1,3.38,.09,4.84,.26,7.91,.92,15.88,1.53,23.71,2.94,7.22,1.3,13.95,3.94,19.77,8.91,2.78,2.38,6.56,4.09,10.15,4.93,11.46,2.68,23.1,2.47,34.71,.69,5.03-.77,9.57-2.56,13.47-6.01,1.83-1.62,4.06-2.92,6.31-3.93,8.56-3.86,17.58-6.09,26.94-6.87,4.75-.4,9.51-.7,14.34-1.06v-7.29c-2.44-.17-4.59-.16-6.7-.48-10.01-1.55-20.24-2.33-29.93-5.05-9.8-2.75-19.45-5.52-29.66-6.23-15.73-1.1-31.35-.68-46.31,4.69-11.92,4.28-24.2,5.77-36.67,6.66-1.6,.12-3.2,.31-4.98,.49v7.35Zm161.51-13.56c0,5.6-.18,10.56,.05,15.5,.2,4.32,2.8,6.58,7.47,7.12,7.45,.87,11.4-.51,12.52-5.04,1.42-5.78,.76-11.68,.67-17.58h-20.71Zm-188.84,.03c0,5.2-.09,9.83,.03,14.46,.12,4.62,2.09,7.11,6.01,8.01,6.07,1.4,11.39-.15,13.41-3.91,.23-.44,.46-.9,.55-1.38,1.07-5.73,.71-11.42,.21-17.18h-20.21Zm92.03,38.73c2.09,7.56,3.62,8.76,10.75,8.82,2.32,.02,4.63,.03,6.95,.02,6.12-.02,8.17-2.14,8.38-8.84h-26.08Z"/>
  <path class="cls-1" d="M301.93,272.49c27.13,0,54.25,0,81.38,0,7.78,0,9.26,1.54,9.26,9.42,0,30.46,0,60.91,0,91.37,0,1.5,.07,3.02-.17,4.48-.48,2.96-2.31,4.75-5.3,5.16-1.48,.2-2.99,.15-4.48,.15-53.75,0-107.51-.01-161.26-.02-1.16,0-2.33,.03-3.49-.03-4.9-.27-6.86-2.21-6.87-7.18-.05-32.12-.07-64.24-.05-96.36,0-5.06,2.25-6.98,8.11-7.01,13.81-.07,27.63-.06,41.44-.07,13.81,0,27.63,0,41.44,0,0,.03,0,.07,0,.1Zm-83.56,7.36v94.84c1.3-.93,2.1-1.48,2.87-2.07,16.54-12.61,33.07-25.24,49.62-37.84,4.8-3.65,6.38-3.47,10.73,.6,5.07,4.75,10.22,9.4,15.84,14.55,1.54-1.84,2.66-3.3,3.9-4.64,10.31-11.1,20.76-22.06,30.92-33.29,5.4-5.96,7.36-6.06,13.01,.06,11.63,12.6,23.56,24.92,35.37,37.34,1.17,1.23,2.45,2.37,4.5,4.34v-73.89H218.37Zm12.07,94.86c.1,.28,.2,.56,.3,.84h154.19c1.41-6.6,.36-11.54-4.63-16.41-13.07-12.79-25.47-26.26-38.08-39.51-1.13-1.19-1.88-2.74-2.88-4.24-1.8,1.72-2.67,2.47-3.45,3.31-8.61,9.25-17.19,18.53-25.8,27.78-2.61,2.8-5.22,5.6-7.96,8.27-3.82,3.73-5.89,3.77-9.81,.33-1.75-1.53-3.38-3.2-5.13-4.74-3.82-3.37-7.68-6.69-11.71-10.2-15.28,11.73-30.17,23.15-45.06,34.57Z"/>
  <path class="cls-1" d="M341.1,249.66c.16-7.59,.31-15.02,.46-22.45,.02-1.16-.04-2.33,.02-3.49,.1-1.91,1.07-3.16,3.01-3.35,2.17-.21,3.52,.96,3.9,3.01,.27,1.46,.21,2.98,.22,4.48,.02,7.14,0,14.28,0,21.98,2.36-1.25,4.11-2.55,6.06-3.08,1.4-.38,3.59-.3,4.53,.56,1.56,1.43,.02,2.95-1.11,4.22-3.45,3.84-6.83,7.73-10.29,11.55-2.57,2.84-3.23,2.83-5.9-.08-3.6-3.92-7.2-7.85-10.66-11.89-.77-.9-.95-2.3-1.41-3.47,1.33-.42,2.81-1.42,3.95-1.13,2.32,.59,4.46,1.89,7.21,3.14Z"/>
  <path class="cls-1" d="M264.12,249.61c3.42-1.33,5.94-2.46,8.57-3.24,.71-.21,2.24,.43,2.48,1.04,.34,.88,.23,2.41-.36,3.09-3.99,4.67-8.07,9.26-12.33,13.69-.59,.62-2.84,.69-3.4,.12-4.53-4.62-8.92-9.39-13.19-14.26-1.34-1.53-.48-3.45,1.57-3.54,1.75-.07,3.6,.39,5.27,.99,1.32,.47,2.44,1.51,4.37,2.77,0-8.01,0-15.28,0-22.54,0-1.33-.05-2.67,.14-3.98,.3-2.07,1.65-3.63,3.68-3.14,1.22,.3,2.73,1.96,2.96,3.22,.49,2.57,.22,5.29,.23,7.95,.01,5.93,0,11.87,0,17.82Z"/>
  <path class="cls-1" d="M306.25,249.67c3.3-1.37,5.65-2.59,8.15-3.25,.97-.26,2.58,.45,3.3,1.26,.4,.46-.11,2.28-.74,3.01-3.91,4.51-7.96,8.89-11.98,13.3-1.42,1.56-2.8,1.42-4.21-.12-4.03-4.41-8.15-8.73-12.11-13.2-.64-.72-1.08-2.29-.71-3.04,.35-.72,1.96-1.4,2.82-1.21,2.64,.58,5.19,1.59,8.11,2.54,.08-.71,.3-1.9,.31-3.1,.06-5.81,.06-11.61,.08-17.42,0-1.33,0-2.66,.08-3.98,.14-2.24,1.08-3.94,3.56-3.93,2.54,0,3.35,1.74,3.35,4.01,0,4.98,0,9.96,0,14.93,0,3.28,0,6.56,0,10.19Z"/>
  <path class="cls-1" d="M263.69,306.83c-.15,9.54-7.46,16.83-16.76,16.72-9.23-.11-16.68-7.84-16.43-17.04,.25-8.98,7.45-15.89,16.46-15.79,9.43,.1,16.87,7.26,16.73,16.12Zm-7.22,.32c-.1-5-4.7-9.37-9.85-9.35-4.84,.02-9.09,4.51-8.98,9.48,.11,4.97,4.46,9.12,9.44,9.02,5.06-.1,9.48-4.41,9.39-9.15Z"/>
</svg>