<?xml version="1.0" encoding="UTF-8"?>
<svg id="Réteg_1" data-name="Réteg 1" xmlns="http://www.w3.org/2000/svg" viewBox="0 0 510.47 360.94">
  <defs>
    <style>
      .cls-1 {
        fill: #0099bc;
      }
    </style>
  </defs>
  <path class="cls-1" d="M240.33,134.19c0-1.83-.16-3.68,.03-5.49,.8-7.8-2.77-13.82-7.9-19.07-5.26-5.39-9.73-11.28-12.91-18.12-2.75-5.92-4.39-12.2-4.15-18.66,.27-7.26,1.6-14.33,5.8-20.68,1.88-2.84,3.12-6.05,5.54-8.67,6.87-7.46,14.56-13.02,24.92-14.93,15.06-2.78,28.27,.7,39.77,10.39,3.32,2.79,5.97,6.67,8.12,10.51,7.72,13.73,8.01,28.09,2.03,42.44-1.74,4.19-4.75,7.92-7.54,11.59-2.6,3.42-5.74,6.43-8.54,9.7-3.46,4.04-5.18,8.74-5.15,14.09,.03,5.49-.04,10.99,.05,16.48,.04,2.42-.51,4.5-1.92,6.51-1.8,2.57-3.42,5.28-4.88,8.05-4.56,8.74-16.46,9.54-22.98,3.44-4.16-3.9-6.86-8.88-9.63-13.76-.6-1.07-.63-2.54-.66-3.83-.09-3.33-.03-6.66-.03-9.99h.02Zm19.33-9.53v-.02c3.5,0,6.99-.02,10.49,0,2.47,.02,3.89-1.04,4.5-3.55,1.32-5.38,3.9-10.15,7.61-14.29,1.66-1.85,3.33-3.7,5.06-5.48,10.12-10.41,13.37-22.96,10.62-36.9-2.13-10.8-7.82-19.48-17.72-25.11-5.91-3.36-12.37-5.17-18.9-5.12-6.14,.05-12.52,.93-18.15,4.16-1.58,.91-3.22,1.73-4.89,2.45-.65,.28-1.54,.38-2.2,.17-3.32-1.05-5.03,.17-4.35,3.44,.21,1.02,.6,1.81-.22,2.69-4.89,5.3-6.96,11.79-8.35,18.72-1.66,8.25-.8,16.12,2.58,23.69,2.73,6.12,6.96,11.23,11.75,15.9,4.47,4.35,7.79,9.37,9.09,15.64,.75,3.62,.97,3.59,4.58,3.61,2.83,.02,5.66,0,8.49,0Zm10.51,26.13c-1.88-.33-3.47-.77-5.06-.84-2.81-.13-5.64-.15-8.45,.02-1.6,.1-3.16,.67-4.74,1.03,.6,1.45,.99,3.04,1.83,4.33,3.31,5.05,10.94,4.74,14.02-.49,.67-1.13,1.35-2.26,2.41-4.05Zm-8.85-9.93s0-.04,0-.07c-1.33,0-2.65,0-3.98,0-2.49,0-4.98-.06-7.46,.11-.51,.04-1.08,.92-1.37,1.54-.08,.17,.73,.83,1.21,1.15,.24,.16,.65,.07,.98,.07,5.97,0,11.94,.02,17.91-.05,1.11-.01,2.26-.34,3.32-.74,.45-.17,.7-.89,1.04-1.36-.4-.22-.8-.62-1.21-.62-3.48-.05-6.96-.03-10.45-.03Zm-.63-7.1s0,.04,0,.06c3.31,0,6.61,.01,9.92,0,.65,0,1.31-.08,1.94-.24,.2-.05,.42-.5,.41-.76,0-.27-.23-.73-.42-.77-1.77-.3-3.54-.67-5.33-.73-5.27-.18-10.55-.24-15.83-.28-.61,0-1.3,.34-1.81,.71-.44,.32-.68,.9-1.01,1.37,.4,.22,.81,.62,1.21,.62,3.64,.05,7.27,.03,10.91,.03Z"/>
  <path class="cls-1" d="M168.3,105.2c0-10.99,0-21.99,0-32.98,0-4.88,.91-6.35,5.8-7.8,3.35-1,6.34-3.18,10.03-3.12,.21,0,.43-.45,.65-.69-.3-.25-.56-.63-.9-.74-2.43-.76-3.62-2.04-3.48-3.83,.13-1.72,1.9-3.89,3.78-4.12,2.14-.25,4.38-.44,6.48-.07,6.64,1.16,13.41,1.64,19.86,3.8,.47,.16,1.03,.14,1.42,.39,.79,.52,2.18,1.36,2.08,1.73-.28,1.01-1.03,2.15-1.92,2.64-.92,.51-2.25,.52-3.36,.4-2.95-.31-5.87-.91-8.82-1.2-3.61-.35-7.25-.52-10.87-.73-1.26-.07-1.77,.66-1.75,1.85,.01,.67,0,1.33,0,2,0,18.32,0,36.65,.03,54.97,0,4.21,.46,4.47,4.58,3.73,6.9-1.23,13.85-1.27,20.74,0,5.17,.96,10.3,2.16,15.44,3.27,.8,.17,1.59,.39,2.37,.65,1.47,.48,2.15,1.47,1.85,3.04-.29,1.49-1.23,2.57-2.7,2.44-2.95-.25-5.87-.81-8.8-1.24-3.9-.58-7.79-1.35-11.71-1.73-8.4-.81-16.71-.19-24.92,1.87-2.44,.61-3.66-.52-3.88-3.15-.06-.66-.02-1.33-.02-2,0-14.83,0-29.65,.01-44.48,0-2.06-.63-4.47,2.71-4.83,.48-.05,1.1-1.56,1.13-2.41,.03-1-.63-1.57-1.94-1.64-1.22-.06-1.94-1.78-3.75-1.08-2.91,1.12-3.04,.94-3.05,4.1-.03,19.16-.03,38.31-.01,57.47,0,3.05,.54,3.5,3.51,2.94,4.36-.83,8.67-2.38,13.04-2.53,6.55-.22,12.95-2.05,19.72-.69,6.11,1.22,12.37,1.84,18.45,3.36,1.27,.32,2.56,.73,3.73,1.31,1.77,.88,2,2.85,.51,4.08-1.01,.84-2.06,1.34-3.59,.97-2.88-.69-5.83-1.1-8.77-1.49-4.89-.65-9.81-1.73-14.7-1.66-11.07,.17-22.01,1.73-32.66,4.9-.95,.28-1.86,.74-2.82,.9-1.98,.32-3.2-.62-3.43-2.63-.13-1.15-.04-2.33-.04-3.49,0-10.83,0-21.66,0-32.48h-.03Z"/>
  <path class="cls-1" d="M354.29,105.3c0,10.33,0,20.65,0,30.98,0,1.17,.08,2.34-.03,3.5-.33,3.57-1.89,4.72-5.26,3.87-5.57-1.41-11.14-2.87-16.7-4.31-.48-.12-.95-.33-1.44-.36-5.61-.37-11.25-1.22-16.84-.94-7.05,.35-14.16,.79-21.1,2.45-1.11,.27-2.29,.32-3.44,.4-1.5,.11-2.67-.53-3.11-1.96-.48-1.56,.47-2.69,1.82-3.1,3.77-1.14,7.56-2.29,11.41-3.03,4.52-.86,9.12-1.29,13.69-1.88,.66-.09,1.34-.14,1.99-.08,5.42,.5,10.85,.89,16.24,1.59,4.07,.53,8.08,1.51,12.13,2.23,3.02,.54,3.55,.13,3.55-2.88,.02-19.32,.02-38.64,0-57.96,0-2.52-.64-3.27-2.86-3.84-2.12-.54-2.91,.07-2.91,2.51-.03,16.82-.02,33.64-.03,50.46,0,1.33,.08,2.67-.05,3.99-.21,2.27-1.44,3.15-3.73,2.81-1.95-.3-3.89-.64-5.83-.98-12.1-2.11-24.05-1.16-35.88,1.78-2.27,.56-4.27,.48-6.08-1.03-1.5-1.25-1.34-3.03,.34-4.03,.55-.33,1.19-.58,1.82-.71,6.44-1.31,12.84-3.1,19.35-3.73,5.72-.55,11.56,.19,17.35,.37,.16,0,.31,.12,.47,.15,5.36,.95,5.99,.44,5.99-4.95,0-17.82,0-35.64,0-53.46,0-.83,0-1.67,.02-2.5,.04-1.25-.56-1.87-1.79-1.78-3.62,.25-7.25,.41-10.85,.82-3.43,.39-6.88,.87-10.22,1.69-1.49,.37-2.2-.22-2.99-1.04-1.79-1.85-1.34-3.78,1.12-4.5,2.21-.64,4.48-1.08,6.74-1.55,6.29-1.3,12.56-2.82,19.07-2.52,3.8,.18,4.94,1.29,5.09,5.12,0,.17,0,.33,0,.5q.11,4.74,4.67,6.18c.31,.1,.67,.07,.98,.18,6.27,2.12,7.27,3.51,7.27,10.07,0,10.49,0,20.98,0,31.48Z"/>
  <path class="cls-1" d="M263.65,249.91c-19.58,.9-37.84-16.68-37.52-37.94,.29-19.12,18.17-36.58,37.17-36.52,21.55,.07,38.08,17.28,37.96,37.64-.12,19.25-15.44,36.98-37.61,36.82Zm.16-7.09c16.26,.78,30.34-13.14,30.31-30.09-.02-17.08-13.79-30.43-30.94-30-16.88,.43-29.45,13.63-29.89,29.7-.4,14.57,12.27,31.49,30.51,30.39Z"/>
  <path class="cls-1" d="M190.81,304.18c1.32-5.09,2.08-10.4,4.05-15.22,6.27-15.38,17.09-26.14,33.19-31.34,5.31-1.71,10.86-2.91,15.54-6.34,1.84-1.35,4.43,.43,4.69,3.36,.2,2.27,.94,4.21,2.09,6.03,2.37,3.73,5.75,5.94,10.24,6.06,3.46,.1,6.97,.57,10.26-1.18,3.66-1.94,6.58-4.46,7.52-8.72,.07-.32,.26-.61,.36-.92,1.96-5.88,2.94-6.05,8.42-2.91,3.41,1.96,7.17,3.36,10.87,4.75,9.25,3.45,17.95,7.75,24.82,15.09,8.28,8.84,13.08,19.29,14.78,31.27,.28,1.95-.21,3.25-1.62,4.26-1.72,1.23-4.07,.4-4.73-1.82-.84-2.83-1.31-5.78-2.05-8.65-2.69-10.55-8.69-18.76-17.35-25.29-4.58-3.45-9.65-5.73-14.94-7.68-3.4-1.25-6.91-2.19-10.27-3.52-1.47-.58-1.97-.21-2.66,1.02-3.06,5.43-7.41,9.39-13.61,10.78-8.93,2.01-17.15,.54-24-5.89-1.4-1.31-2.27-3.22-3.26-4.92-.8-1.38-1.86-1.84-3.33-1.31-7.15,2.57-14.5,4.61-21.08,8.6-8.45,5.12-13.78,12.71-17.38,21.68-1.67,4.16-2.53,8.51-3.04,12.95-.11,.95-.34,1.99-.86,2.75-.87,1.26-2.05,2.29-3.79,1.47-1.38-.65-2.74-1.34-2.46-3.27,.05-.33,0-.67,0-1-.13-.03-.27-.07-.4-.1Z"/>
  <path class="cls-1" d="M146.81,239.93c-20.19,.64-36.46-16.12-36.2-36.14,.27-21.1,14.6-35.36,36.02-35.66,21.07-.3,35.89,16.75,35.75,36.65-.12,17.81-14.89,35.55-35.57,35.16Zm28.5-36.47c.25-15.59-12.22-27.99-28.27-28.31-17.16-.34-29.28,12.03-29.45,28.43-.17,17.12,11.67,28.9,28.22,29.79,7.76,.42,15.24-2.47,20.97-8.55,5.45-5.79,8.72-12.38,8.53-21.37Z"/>
  <path class="cls-1" d="M377.5,240.29c-15.73,.57-29.2-11.1-33.7-23.77-4.51-12.71-2.4-24.56,6.27-35.25,5.96-7.35,13.49-11.23,22.7-12.63,12.96-1.97,24.92,3.07,32.94,13.61,5.37,7.05,8.18,14.76,7.59,23.52-.55,8.11-3.43,15.41-8.89,21.62-5.06,5.75-10.98,10.1-18.62,11.66-2.73,.56-5.53,.84-8.29,1.24Zm28.8-36.43c.09-16.1-12.36-28.55-28.25-28.66-16.81-.12-29.31,10.59-29.38,29.45-.06,17.18,12.2,28.62,28.63,28.72,16.6,.11,29.09-12.79,29-29.51Z"/>
  <path class="cls-1" d="M79.21,290.86c1.21-10.17,4.13-19.76,10.59-27.87,4.94-6.21,11.32-10.55,18.84-13.29,6.2-2.26,12.28-4.85,18.38-7.36,3.02-1.24,4.46-.96,5.31,2.07,2.72,9.73,17.57,12.82,25.6,5.06,1.37-1.33,2.09-3.34,3.03-5.08,1.58-2.92,3.95-3.8,6.4-1.89,3.87,3.01,8.43,4.5,12.9,6.1,6.43,2.3,12.62,4.97,18.05,9.17,1.31,1.01,2.61,2.07,3.73,3.27,.64,.68,1.24,1.68,1.28,2.56,.04,1.03-.3,2.29-.94,3.08-1.02,1.25-2.45,.69-3.58-.05-1.38-.9-2.74-1.88-3.95-3-3.62-3.34-8.07-5.24-12.47-7.13-4.54-1.95-9.31-3.34-13.91-5.16-1.66-.66-2.73-.43-3.97,.8-1.75,1.75-3.59,3.46-5.6,4.88-8.52,6.01-23.09,4.13-29.1-3.98-1.47-1.98-3.08-2.76-5.55-1.74-6.26,2.58-12.69,4.75-18.84,7.55-9.99,4.55-14.79,13.37-17.9,23.27-1.03,3.28-1.41,6.76-2.08,10.15-.06,.32,0,.68-.08,.99-.64,2.35-2.53,3.91-4.13,3.45-1.66-.48-2.37-2.11-2.09-4.84,.03-.33,.05-.66,.08-1Z"/>
  <path class="cls-1" d="M446.36,290.26c.43,4.44-.56,6.48-2.5,6.52-1.77,.04-3.19-1.75-3.65-4.57-1.51-9.34-5-17.89-11.38-24.89-3.53-3.87-7.73-7.32-12.69-9.36-5.64-2.31-11.5-4.08-17.13-6.41-1.84-.77-2.71-.3-3.81,.92-2.12,2.36-4.56,4.22-7.44,5.7-10.07,5.17-22.15,1.42-27.94-5.61-1.13-1.38-2.09-2.2-3.68-1.57-8.27,3.27-17.06,5.38-24.41,10.72-1.73,1.26-3.34,2.71-4.93,4.15-1.07,.97-1.96,.93-3.04,.03-1.99-1.66-2.49-2.61-1.52-4.05,.92-1.36,1.99-2.68,3.25-3.72,3.97-3.27,8.27-5.92,13.2-7.7,6.36-2.29,12.54-5.09,18.73-7.8,3.72-1.63,4.31-1.36,6.17,2.6,2.51,5.35,6.54,8.56,12.78,8.59,3.91,.01,7.44-.63,10.79-2.9,2.41-1.63,3.4-3.98,4.65-6.29,1.96-3.62,3.24-3.85,6.53-1.46,1.44,1.05,3.06,1.94,4.72,2.59,5.38,2.1,10.93,3.79,16.19,6.14,6.28,2.81,11.63,7.11,15.88,12.51,5.15,6.55,9.11,13.77,10.59,22.13,.14,.81,.49,1.58,.6,2.38,.1,.82,.02,1.66,.02,1.35Z"/>
  <path class="cls-1" d="M133.16,156.33c.56-9.39,4.25-18,9.96-25.96,3.85-5.37,8.78-9.39,14.18-12.98,.96-.64,1.99-1.24,3.08-1.56,1.34-.4,2.92-.21,3.47,1.16,.44,1.08,.51,2.71-.02,3.68-.67,1.23-1.98,2.28-3.25,2.99-4.42,2.48-8.12,5.89-11.2,9.75-4.67,5.86-7.86,12.56-9.01,20.09-.35,2.27-.62,4.56-.98,6.83-.28,1.74-1.4,2.55-3.12,2.58-1.73,.03-2.73-.83-3.05-2.61-.06-.32-.05-.66-.05-.99,0-.83,0-1.66,0-2.97Z"/>
  <path class="cls-1" d="M390.15,158.89c-.26,2.01-1.61,3.74-3.32,3.99-1.99,.29-3.19-.74-3.62-3.1-.96-5.32-1.48-10.65-3.7-15.76-3.51-8.09-8.25-14.96-15.91-19.6-1.27-.77-2.52-1.59-3.66-2.54-1.71-1.42-2.13-3.36-1.21-4.82,.83-1.33,3.15-1.87,4.95-1.1,.45,.19,.81,.58,1.23,.84,10.43,6.56,18.11,15.42,21.92,27.22,1.55,4.81,2.24,9.9,3.32,14.86Z"/>
  <path class="cls-1" d="M259.44,102.79c0,3.66,.01,7.33,0,10.99,0,1,.05,2.03-.2,2.98-.38,1.43-1.44,2.17-2.97,2.15-1.53-.02-2.58-.79-2.88-2.24-.23-1.13-.17-2.32-.17-3.48-.02-6.99,0-13.99-.03-20.98-.01-2.96,0-3.16-3.06-3.93-3.62-.91-6.29-2.65-7.87-6.18-.9-2-.86-3.7-.1-5.68,2.37-6.16,9.66-8.24,13.68-2.7,1.43,1.97,2.28,4.36,3.5,6.51,.34,.59,.99,1.18,1.61,1.37,.32,.1,1.1-.59,1.34-1.09,.66-1.32,1.06-2.77,1.7-4.11,2.09-4.38,4.85-6.03,9.43-5.74,4.19,.27,7.88,5.82,6.48,9.86-1.01,2.89-2.53,5.4-5.72,6.4-1.1,.34-2.17,.77-3.27,1.12-1.77,.58-2.57,1.62-2.54,3.64,.11,7.16,.03,14.32,0,21.48,0,1.16,.09,2.36-.15,3.48-.5,2.32-2.74,2.83-4.56,1.22-1.42-1.26-1.52-2.84-1.51-4.54,.02-6.66,.1-13.32-.06-19.98-.04-1.49,1.34-4.34-1.53-4.23-2.26,.09-1.01,2.72-1.1,4.18-.19,3.15-.06,6.32-.06,9.49h.02Zm-7-22.22c-.36-.84-.54-1.66-1.01-2.26-.41-.52-1.15-.79-1.75-1.16-.42,.8-1.39,2.06-1.18,2.31,.75,.88,1.89,1.45,2.94,2.03,.11,.06,.59-.54,1-.92Zm16.56,.93c2.24-.73,3.98-.92,4.17-3,.04-.43-.17-1.07-.49-1.28-.29-.2-1.12-.11-1.29,.14-.78,1.15-1.41,2.4-2.4,4.14Z"/>
</svg>