<?xml version="1.0" encoding="UTF-8"?>
<svg id="OBJECTS" xmlns="http://www.w3.org/2000/svg" viewBox="0 0 600 500">
  <defs>
    <style>
      .cls-1 {
        fill: #0099ba;
      }
    </style>
  </defs>
  <path class="cls-1" d="M362.5,204.84c-4.31,2.81-8.66,5.34-12.66,8.33-9.98,7.46-9.92,7.55-21.43,10.46-1.97,4.63-3.69,9.34-5.94,13.79-3.88,7.69-10.04,11.8-18.97,11.5-6.12-.2-12.26-.1-18.37,.2-9.67,.47-16.38-3.98-20.71-12.22-2.12-4.04-3.59-8.43-5.72-13.53-13.25-1.51-22.47-12.13-34.28-18.83-16.09,10.65-27.4,24.37-30.61,43.83-.21,1.29-.14,2.64-.45,3.9-.78,3.11-2.63,5.2-6.06,4.63-3.07-.5-4.5-2.82-4.11-5.76,.59-4.53,1.12-9.15,2.47-13.49,4.14-13.26,11.71-24.36,22.27-33.4,1.1-.94,2.19-1.9,3.86-3.35-12.43-4.07-24.46-5.71-36.73-5.5-1.48,.03-3.51,1.67-4.3,3.1-5.57,10.19-23.53,16.35-37.38,8.75-7.66-4.2-12.06-10.64-12.11-19.6-.05-8.75-.06-17.5,.06-26.26,.08-5.87,2.89-8.62,8.89-9,1.96-.12,3.94-.01,5.91-.07,1.93-.05,3.86-.18,6.25-.3v-15.72c-2.48,0-4.8,0-7.13,0-15.1,0-30.19,0-45.29-.03-5.77-.02-8.42-1.48-7.89-4.51,.8-4.62,4.81-3.84,7.87-3.86,17.28-.13,34.56-.06,52.58-.06,.12-2.41,.24-4.72,.35-7.04,.15-2.99,1.41-5.23,4.65-5.21,3.23,.02,4.49,2.23,4.58,5.25,.06,1.94,.19,3.87,.31,6.32,2.13,.17,4,.44,5.87,.45,14.88,.06,29.76,.05,44.63,.13,2.17,.01,4.5-.08,6.45,.67,1.31,.5,3.05,2.57,2.87,3.64-.26,1.53-1.89,3.17-3.36,4.02-1.17,.68-2.98,.28-4.51,.28-14.66,.02-29.32,.02-43.98,.03-2.39,0-4.79,0-7.83,0v15.88c3.11,0,6.31-.02,9.51,0,8.25,.08,10.18,1.85,11.23,10.18,.1,.83,.41,1.63,.76,2.93,8.76-1.43,17.35-2.81,25.94-4.22,12.51-2.06,25-4.17,37.52-6.2,2.19-.36,4.29-.39,5.06-3.17,5.16-18.5,19.66-25.11,36.63-26.68,11.63-1.08,23.63-.47,35.24,1.06,14.26,1.89,24.49,10.08,28.96,24.29,.81,2.59,1.92,3.99,4.79,4.46,20.29,3.3,40.55,6.77,60.82,10.16,1.06,.18,2.16,.15,3.75,.25,.27-1.72,.55-3.36,.79-4.99,.79-5.39,3.13-7.7,8.57-7.99,3.69-.2,7.4-.04,11.73-.04v-16.62c-2.26,0-4.57-.02-6.88,0-14.66,.12-29.32,.26-43.98,.36-1.96,.01-4.14,.32-5.82-.42-1.53-.67-3.43-2.54-3.47-3.94-.04-1.33,1.86-3.28,3.35-3.96,1.67-.76,3.85-.49,5.81-.49,16.82-.03,33.65-.02,51.21-.02,.2-2.52,.37-4.82,.56-7.11,.22-2.74,1.48-4.66,4.41-4.71,2.96-.05,4.25,1.85,4.47,4.6,.17,2.13,.27,4.27,.45,7.21,2.64,0,4.97,0,7.31,0,14.88,0,29.76,0,44.64,0,1.75,0,3.73-.44,5.19,.23,1.72,.79,3.82,2.35,4.27,3.98,.7,2.55-1.65,3.8-3.97,4.16-1.93,.3-3.92,.34-5.88,.34-14.66,.03-29.32,.03-43.97,.03-2.37,0-4.74,0-7.61,0v16.32c4,0,7.87-.07,11.73,.02,6.86,.15,9.96,3.19,10.04,10.08,.09,8.31,.05,16.63-.11,24.94-.14,7.51-3.55,13.39-9.58,17.8-14.21,10.37-32.27,6.04-42.21-10.65-12.73,.55-25.61,1.92-38.94,6.48,1.98,1.83,3.43,3.26,4.97,4.58,12.17,10.48,20.17,23.47,23.5,39.23,.49,2.34,.74,4.77,.72,7.16-.02,2.79-1.82,4.85-4.48,4.59-1.77-.17-3.46-1.98-4.98-3.29-.55-.47-.61-1.61-.73-2.47-2.86-20.02-14.15-34.35-31.34-45.88Zm50.59-29.15c-80.09-18.33-159.55-17.93-238.98-.52v9.61c1.88,.18,3.37,.28,4.86,.48,9.1,1.2,18.27,2.02,27.28,3.73,13.02,2.47,25.51,6.84,35.64,15.67,5.93,5.16,12.53,7.79,19.96,9.04,19.34,3.24,38.75,3.24,58.21,1.09,9.54-1.05,18.28-3.55,25.54-10.5,3.23-3.09,7.53-5.26,11.67-7.17,12.8-5.9,26.24-9.64,40.3-11.06,5.13-.52,10.25-1.2,15.53-1.83v-8.53Zm-160.07-22.48h80.34c-1.58-7.01-5.56-12.33-12.25-14.81-18.77-6.97-37.7-6.82-56.4,.32-6.29,2.4-10.09,7.37-11.69,14.48Zm169.65,8.53c0,9.37-.6,18.3,.18,27.11,.69,7.76,7.84,12.37,16.81,12.28,8.62-.09,15.72-5.16,16.35-12.99,.69-8.61,.16-17.32,.16-26.4h-33.5Zm-292.07-.03c0,8.32-.08,16.12,.02,23.91,.1,7.73,4.16,12.97,11.29,14.88,8.23,2.21,16.57-.59,20.22-6.85,.65-1.11,1.38-2.4,1.4-3.61,.12-9.3,.06-18.61,.06-28.32h-32.99Zm185.21,63.34h-45.76c.92,2.32,1.58,4.15,2.37,5.91,2.75,6.15,6.95,9.79,14.26,9.1,4.77-.45,9.62-.1,14.43-.1,9.05,0,13.79-4.68,14.7-14.92Z"/>
  <path class="cls-1" d="M350.79,352.9c3.86,0,7.52,0,11.18,0,1.31,0,2.62,.02,3.94,0,3.29-.07,5.01,1.78,4.91,4.81-.09,3-2.45,3.84-5.12,3.85-4.98,.01-9.96,0-15.78,0,1.53,8.12-1.96,13.28-6.91,18.5-5.5,5.81-12.36,2.94-19.43,5.03,0,2.24,0,4.77,0,7.3,0,1.75,.07,3.51-.08,5.25-.23,2.73-1.57,4.62-4.52,4.56-2.92-.06-4.29-1.85-4.3-4.7-.02-4.11,0-8.22,0-12.79h-17.73c0,2.89,0,5.86,0,8.82,0,1.53,.04,3.07-.11,4.59-.27,2.77-1.88,4.91-4.61,4.23-1.58-.39-3.58-2.69-3.79-4.33-.53-4.25-.18-8.61-.18-13.31h-17.96c0,4.09,.09,7.95-.03,11.8-.12,3.96-1.85,6.15-4.57,5.84-3.38-.38-4.01-2.85-3.99-5.73,.03-3.88,0-7.77,0-11.58-6.86-2.4-13.97,.75-19.81-4.87-5.32-5.12-8.22-10.43-6.93-18.61-4.3,0-7.74,.02-11.17,0-1.75-.01-3.51,.05-5.24-.17-2.39-.32-4.6-1.66-3.91-4.18,.45-1.65,2.5-3.68,4.14-4.01,3.38-.67,6.96-.3,10.46-.4,1.5-.04,2.99-.18,5.04-.31v-15.28c-3.39,0-6.8,0-10.2,0-1.75,0-3.51,.08-5.25-.07-2.64-.23-4.9-1.35-4.69-4.34,.19-2.71,2.14-4.26,4.9-4.35,3.5-.11,7-.04,10.5-.1,1.47-.02,2.95-.18,4.81-.29v-15.71c-1.99,0-4.06,0-6.14,0-2.41,0-4.81,0-7.22,.02-3.02,.02-5.87-.33-6.29-4.13-.32-2.93,1.81-4.42,6.48-4.65,1.96-.1,3.94-.05,5.9-.05,2.17,0,4.34,0,7.48,0-.61-7.63,1.39-13.75,6.82-19.46,5.96-6.26,13-3.54,20.56-5.04,0-2.88,0-5.85,0-8.82,0-1.53-.01-3.06,.06-4.59,.12-2.66,1.73-3.99,4.22-4.04,2.63-.05,4,1.54,4.03,4.12,.06,4.33,.02,8.66,.02,13.4h17.84c0-4.06,.12-7.93-.04-11.79-.13-3.24,.49-5.93,4.33-5.83,3.7,.1,4.46,2.83,4.4,6.01-.07,3.69-.02,7.38-.02,11.55h17.74c0-4.13,.1-8.2-.03-12.26-.1-3.15,1.04-5.19,4.33-5.27,3.44-.08,4.41,2.32,4.45,5.24,.06,3.9,.01,7.8,.01,11.78,7.17,2.32,14.69-.89,20.82,5.39,5.53,5.66,6.84,11.72,5.89,19.81,4.33,0,7.75,0,11.16,0,1.75,0,3.5-.08,5.25,0,2.51,.11,4.23,1.37,4.4,3.94,.2,2.95-1.64,4.52-4.38,4.62-5.01,.17-10.03,.05-15.62,.05v16.04c3.49,0,6.91,0,10.33,0,1.75,0,3.51-.04,5.24,.1,2.83,.23,4.83,2,4.24,4.65-.36,1.58-2.64,3.7-4.24,3.86-4.97,.5-10.02,.18-15.6,.18v15.77Zm-58.16-64.61v-.02c-2.41,0-4.81,0-7.22,0-10.5,.02-21-.1-31.49,.11-7.49,.14-10.17,3.02-10.18,10.52-.04,21.65-.06,43.3,.03,64.95,.03,7.84,3.88,11.43,11.8,11.4,3.72-.01,7.44-.06,11.15-.06,21-.01,41.99-.1,62.98,.04,5.28,.04,8.93-2.19,10.9-6.76,.9-2.09,.74-4.72,.75-7.1,.05-20.56-.05-41.11,.04-61.67,.04-8.08-2.51-11.21-10.72-11.35-12.68-.21-25.36-.05-38.05-.05Z"/>
  <path class="cls-1" d="M274.15,304.51h12.9c5.74,17.36,11.46,34.65,17.38,52.55-2.8,.23-4.71,.36-6.62,.55-3.08,.31-4.91-.98-5.79-4-.9-3.12-2.08-6.16-3.25-9.59h-17.27c-1.54,4.3-3.05,8.55-4.66,13.03h-9.88c5.81-17.76,11.41-34.89,17.18-52.55Zm-.01,30.85h13.11c-2.39-6.95-4.57-13.28-7.21-20.94-2.36,7.36-4.24,13.15-6.07,18.96-.12,.37,.06,.83,.17,1.98Z"/>
  <path class="cls-1" d="M312.53,304.55h9.28v52.36h-9.28v-52.36Z"/>
</svg>