<?xml version="1.0" encoding="UTF-8"?>
<svg id="Réteg_1" data-name="Réteg 1" xmlns="http://www.w3.org/2000/svg" xmlns:xlink="http://www.w3.org/1999/xlink" viewBox="0 0 21.05 20.19">
  <defs>
    <style>
      .cls-1 {
        fill: #fff;
      }

      .cls-2 {
        clip-path: url(#clippath);
      }

      .cls-3 {
        fill: none;
      }
    </style>
    <clipPath id="clippath">
      <rect class="cls-3" x=".93" y=".8" width="19.2" height="18.41"/>
    </clipPath>
  </defs>
  <g class="cls-2">
    <path class="cls-1" d="M16.81,18.46c-1.41,0-2.56-1.15-2.56-2.57,0-.44,.11-.86,.31-1.22l1.77,1.72c.14,.13,.31,.2,.49,.2s.36-.07,.5-.21c.27-.28,.26-.72-.01-.99l-1.77-1.72c.38-.22,.81-.34,1.28-.34,1.41,0,2.56,1.15,2.56,2.56s-1.15,2.57-2.56,2.57m-4.3-7.71c0,.62-.5,1.12-1.12,1.12h-1.49c-.62,0-1.12-.5-1.12-1.12v-1.49c0-.62,.5-1.12,1.12-1.12h1.49c.62,0,1.12,.5,1.12,1.12v1.49Zm-8.26,7.71c-1.41,0-2.56-1.15-2.56-2.57s1.15-2.56,2.56-2.56c.49,0,.95,.14,1.34,.38l-1.81,1.67c-.28,.26-.3,.7-.04,.99,.14,.15,.32,.22,.51,.22,.17,0,.34-.06,.47-.19l1.81-1.67c.18,.35,.28,.74,.28,1.16,0,1.42-1.15,2.57-2.56,2.57M6.87,5.23l-1.82-1.78c-.28-.27-.72-.26-.99,.01-.27,.28-.26,.72,.01,.99l1.87,1.82c-.4,.26-.87,.41-1.38,.41-1.41,0-2.56-1.15-2.56-2.56S3.14,1.56,4.56,1.56s2.56,1.15,2.56,2.56c0,.4-.09,.77-.26,1.11M16.81,1.56c1.41,0,2.56,1.15,2.56,2.56s-1.15,2.56-2.56,2.56c-.44,0-.86-.11-1.23-.31l1.7-1.57c.28-.26,.3-.7,.04-.99-.26-.28-.7-.3-.99-.04l-1.75,1.62c-.22-.37-.34-.81-.34-1.27,0-1.41,1.15-2.56,2.56-2.56m0,11.02c-.68,0-1.31,.21-1.83,.56l-.86-.84c.11-.26,.17-.54,.17-.83v-2.91c0-.29-.06-.57-.16-.82l.89-.82c.52,.34,1.14,.54,1.8,.54,1.83,0,3.32-1.49,3.32-3.32s-1.49-3.32-3.32-3.32-3.32,1.49-3.32,3.32c0,.66,.19,1.27,.53,1.79l-.82,.76c-.32-.19-.7-.3-1.1-.3h-2.91c-.34,0-.65,.08-.94,.21l-.82-.8c.28-.49,.45-1.05,.45-1.66,0-1.83-1.49-3.32-3.32-3.32S1.24,2.29,1.24,4.12s1.49,3.32,3.32,3.32c.72,0,1.39-.23,1.93-.62l.76,.74c-.15,.3-.24,.64-.24,1v2.91c0,.28,.06,.55,.15,.8l-1.01,.93c-.54-.38-1.2-.61-1.91-.61-1.83,0-3.32,1.49-3.32,3.32s1.49,3.32,3.32,3.32,3.32-1.49,3.32-3.32c0-.62-.17-1.19-.46-1.69l.96-.89c.33,.2,.71,.32,1.13,.32h2.91c.4,0,.77-.11,1.09-.3l.81,.79c-.32,.51-.51,1.12-.51,1.76,0,1.83,1.49,3.32,3.32,3.32s3.32-1.49,3.32-3.32-1.49-3.32-3.32-3.32"/>
    <path class="cls-1" d="M11.4,10.01c0,.42-.34,.76-.76,.76s-.76-.34-.76-.76,.34-.76,.76-.76,.76,.34,.76,.76"/>
  </g>
</svg>