<?xml version="1.0" encoding="UTF-8"?>
<svg id="Réteg_1" data-name="Réteg 1" xmlns="http://www.w3.org/2000/svg" viewBox="0 0 510.47 360.94">
  <defs>
    <style>
      .cls-1 {
        fill: #0099bc;
      }
    </style>
  </defs>
  <path class="cls-1" d="M428.66,205.66c0,1.25,0,3.06,0,4.87,0,19.17,.06,38.33-.05,57.5-.04,6.79-.51,13.58-.76,20.37-.04,1,.04,2,0,3-.07,1.44,.49,2.15,2.02,2.1,2.16-.06,4.33-.02,6.5-.01,1,0,2.02-.09,2.99,.06,1.91,.3,3.52,2.18,3.35,3.74-.16,1.38-1.74,2.91-3.42,3.16-.82,.12-1.66,.05-2.5,.05-54.66,0-109.33,.01-163.99,0-1.31,0-2.67-.06-3.92-.41-1.88-.53-3.07-2.21-2.65-3.56,.51-1.66,1.36-3.04,3.44-3.02,2.67,.03,5.33-.05,8,0,1.52,.02,2.08-.7,2.01-2.13-.04-.83,0-1.67,0-2.5,0-26,0-52-.01-78,0-.83,.01-1.67-.02-2.5-.11-2.79-.11-2.82-2.74-2.89-1.83-.05-3.67,.04-5.5-.02-3.26-.12-5.03-1.36-5.64-3.85-.73-3,.69-6.03,3.57-7.39,3.89-1.84,7.81-3.63,11.72-5.41,2.26-1.03,4.56-1.95,6.8-3.01,15.72-7.46,31.43-14.96,47.14-22.43,4.19-1.99,8.31-4.16,12.62-5.84,2.76-1.07,3.15-2.76,3.13-5.35-.11-13.67-.06-27.33-.06-41,0-1.33-.12-2.7,.17-3.97,.68-3.03,2.48-4.19,5.5-3.65,6.79,1.22,13.54,2.81,20.38,3.67,3.71,.47,7.61,.02,11.36-.5,5.86-.82,11.65-2.07,17.49-3.09,1.7-.3,3.71,.78,4.35,2.53,.5,1.35,.7,2.88,.71,4.34,.06,8.33,.03,16.67,0,25,0,1.16,.04,2.35-.24,3.46-.66,2.64-1.83,3.3-4.58,3.65-5.39,.69-10.79,1.37-16.11,2.43-5.55,1.11-10.91,1.63-16.51-.08-4.22-1.29-8.72-1.64-13.11-2.36-1.71-.28-2.45,.56-2.29,2.28,.3,3.29,.47,6.59,.92,9.86,.11,.77,.99,1.69,1.76,2.07,6.52,3.27,13.09,6.44,19.66,9.62,.74,.36,1.54,.61,2.28,.97,12.09,5.85,24.16,11.75,36.27,17.56,6.72,3.22,13.5,6.31,20.28,9.42,2.55,1.17,4,3.35,3.68,5.75-.33,2.51-1.66,4.03-4.44,4.48-3.02,.49-6.09,.67-9.58,1.04Zm-7.99-.3c-4.91-.39-9.44,.1-13.96,.05-7.29-.08-14.6-.25-21.86-.81-8.77-.68-17.49,2.26-26.25,.09-.31-.08-.67,0-.99,.05-7.42,1.19-14.83,1.18-22.25-.01-.97-.16-1.99-.03-2.99,.06-2.13,.19-4.25,.63-6.38,.65-11,.07-22,.04-33,.04-1.17,0-2.33,.03-3.5,.02-1.21,0-1.78,.56-1.84,1.8-.25,5.12-.76,10.24-.78,15.37-.09,22.5-.06,45-.05,67.5,0,3.22,.06,3.29,3.3,3.29,14.5,.03,29,.01,43.5,.02,4.37,0,4.09,.11,4.09-4.06,0-1,0-2,0-3-.01-9-.06-18-.02-27,.02-3.75,2.07-5.85,5.82-5.9,7.5-.09,15,0,22.5-.09,2.18-.03,3.54,.92,4.09,2.89,.39,1.41,.59,2.91,.6,4.37,.05,7.33,0,14.67,0,22,0,2.83,.06,5.67-.03,8.5-.05,1.74,.66,2.44,2.35,2.3,.66-.05,1.33,0,2,0,13.83,0,27.67-.01,41.5-.02,.83,0,1.73,.18,2.48-.07,.63-.21,1.27-.83,1.58-1.43,.27-.54,.1-1.3,.1-1.97,0-28.16,0-56.33,0-84.64Zm7.45-8.06c-1.76-.87-2.77-1.39-3.81-1.87-7.81-3.62-15.65-7.18-23.43-10.87-11.23-5.33-22.42-10.78-33.63-16.15-3.43-1.64-6.99-3.05-10.32-4.88-2.05-1.12-3.67-.78-5.6,.13-8.38,3.98-16.82,7.81-25.21,11.76-15.28,7.19-30.54,14.43-46.26,21.87h148.26Zm-25.46-85.48c-4.91,.77-9.48,1.28-13.95,2.24-6.94,1.5-8.01,1.53-15.46-.21-4-.93-8.05-1.71-12.13-2.17-2.72-.31-3.21,.33-3.25,3.09-.09,5.16-.08,10.32-.02,15.47,.02,1.61-.19,3.6,.64,4.71,.6,.79,2.77,.37,4.23,.55,.65,.08,1.27,.33,1.91,.44,4.86,.85,9.69,1.87,14.58,2.49,7.01,.9,13.72-1.67,20.62-2.2,2.18-.17,2.8-1.26,2.81-3.83,.04-6.65,.01-13.31,.01-20.59Zm-39.94,165.17h-.01c0-4.49,.04-8.99-.01-13.48-.03-2.77-.09-2.83-2.72-2.86-3.83-.05-7.66-.06-11.49,0-3.38,.05-3.63,.28-3.65,3.77-.05,6.83-.07,13.65,.04,20.48,.04,2.29,.57,4.57,.76,6.86,.11,1.3,.79,1.69,1.94,1.69,4,0,7.99,.04,11.99,0,3.05-.03,3.11-.08,3.14-2.96,.05-4.49,.01-8.99,.01-13.48Z"/>
  <path class="cls-1" d="M110.54,186.74c0-34.49,0-68.98,0-103.47,0-2.49,.04-4.91,1.23-7.27,2.2-4.36,5.71-6.86,10.42-7.54,3.59-.52,7.23-.83,10.85-.89,8.5-.13,17-.09,25.49-.02,2.01,.02,3.27-.46,4.33-2.45,3.03-5.68,8.03-7.98,14.42-7.67,3.66,.18,7.33,.13,10.99,.02,2.67-.08,3.08-.56,3.32-3.26,.7-7.97,5.25-13.64,12.3-16.05,10.65-3.63,23.03,.48,26.8,14.02,1.82,6.53,.56,5.12,6.7,5.28,4,.11,8,.05,12,.02,5.28-.04,9.5,2.02,11.71,6.86,1.3,2.87,3.18,3.26,5.89,3.23,10.5-.11,20.99-.09,31.49-.01,2.12,.02,4.27,.35,6.34,.81,7.07,1.59,11.7,7.28,11.89,14.51,.06,2.33,0,4.67,0,7,0,22.99,0,45.99-.03,68.98,0,1.63-.25,3.28-.6,4.87-.36,1.66-1.81,2.34-3.3,2.62-1.15,.21-2.98-1.77-3.16-3.35-.15-1.32-.06-2.66-.06-3.99,0-23.83,.01-47.65,.02-71.48,0-1,.04-2,0-3-.32-6.79-3.41-9.75-9.85-9.85-11.33-.19-22.66-.07-33.99-.05-2.89,0-2.92,.07-2.96,3.11-.04,3,.06,6-.03,9-.13,3.99-1.8,5.62-5.84,5.75-2.66,.08-5.33,0-8,0-26.33,0-52.65,0-78.98,0-1.33,0-2.73,.23-3.98-.11-3.28-.87-4.56-1.9-4.36-4.99,.22-3.48,0-7,.08-10.49,.04-1.74-.64-2.31-2.34-2.3-11,.05-21.99,0-32.99,.07-1.45,.01-2.95,.42-4.32,.94-2.67,1.03-4.46,2.83-4.29,5.97,.04,.66,0,1.33,0,2,0,68.98-.01,137.96,0,206.95,0,6.11,2.63,8.79,8.63,8.88,.33,0,.67,0,1,0,39.32,0,78.65-.02,117.97-.03,1.33,0,2.68-.09,3.99,.06,1.6,.19,3.32,2.05,3.25,3.28-.09,1.61-1.81,3.58-3.42,3.78-.99,.12-2,.04-3,.04-39.99,0-79.98-.03-119.97,.01-3.61,0-6.94-.77-9.81-2.88-3.98-2.93-5.85-6.86-5.83-11.96,.1-34.99,.05-69.98,.05-104.97h-.02Zm58.27-110.37h-.02c0,1.5-.02,3,0,4.49q.05,3.51,3.5,3.59c.5,.01,1,0,1.5,0,25.63,0,51.26,0,76.89,0,1,0,2-.02,3-.01,1.15,0,1.91-.36,1.91-1.68-.02-4.16,.13-8.33-.08-12.48-.13-2.4-1.09-4.59-4.02-4.87-2.44-.23-4.88-.54-7.32-.51-3.13,.04-6.27,.68-9.37,.51-6.25-.35-9.59-3.44-11.13-9.41-.53-2.05-1.19-4.16-2.28-5.95-4.93-8.17-17.1-7.27-20.96,.44-.93,1.86-1.18,4.07-1.71,6.13-.99,3.84-2.46,7.03-6.94,8.12-3.64,.89-7.17,.91-10.8,.44-2.12-.28-4.28-.67-6.4-.56-3.34,.18-5.45,2.4-5.73,5.76-.16,1.98-.03,3.99-.03,5.99Z"/>
  <path class="cls-1" d="M153.29,279.47c-4.66,0-9.31,.06-13.97-.04-1.45-.03-2.91-.39-4.32-.78-1.63-.44-2.4-1.61-2.4-3.34,.01-8.81-.08-17.63,.03-26.44,.04-3.27,2.64-4.74,5.69-3.23,1.06,.53,1.37,.13,2.03-.37,3.76-2.9,4.68-2.61,8,1.09,2.28,2.55,5.01,4.69,7.55,7.01,2.27-2.17,4.67-4.21,6.78-6.52,3.89-4.28,7.6-8.73,11.41-13.09,.65-.74,1.33-1.56,2.17-2.02,1.22-.67,2.47-1.78,4.02-.31,1.35,1.29,2.04,2.73,1.29,4.43-.59,1.34-1.52,2.56-2.46,3.7-1.05,1.28-2.32,2.39-3.42,3.63-1.64,1.86-2.15,3.84-2.02,6.51,.39,7.96,.19,15.96,.16,23.94-.02,4.26-1.32,5.7-5.56,5.81-4.98,.14-9.98,.03-14.96,.03v-.02Zm-13.52-30.01c0,6.94-.03,13.41,.01,19.89,.02,2.93,.08,3.06,3.07,2.98,7.28-.2,14.56-.56,21.85-.8,1.52-.05,2-.76,1.99-2.17-.03-5.13-.01-10.26-.01-15.76-2.98,3.14-5.5,5.99-8.23,8.62-2.2,2.12-3.87,1.9-5.91-.43-.43-.49-.65-1.18-1.11-1.64-3.58-3.62-6.67-7.79-11.65-10.68Z"/>
  <path class="cls-1" d="M156.15,196.21c4.42-5,8.72-9.82,12.97-14.68,1.64-1.87,3.17-3.83,4.8-5.7,1.21-1.4,2.5-2.64,4.63-2.48,2.33,.18,3.81,1.78,3.13,4-.42,1.38-1.3,2.67-2.21,3.82-1.03,1.3-2.25,2.46-3.5,3.56-2.12,1.87-2.52,3.88-2.35,6.86,.49,8.47,.24,16.98,.15,25.48-.03,2.97-1.6,4.37-4.79,4.41-6.66,.08-13.33,.02-19.99,.02-3.83,0-7.66,.06-11.49-.02-3.48-.07-4.86-1.37-4.89-4.81-.07-8.5-.08-16.99,0-25.49,.03-3.24,1.93-4.74,5.11-4.06,1.24,.27,2.1,.21,3.23-.43,3.36-1.93,3.58-1.82,6.37,.9,2.86,2.79,5.7,5.58,8.82,8.63Zm10.51-.22c-3.03,3.06-5.64,5.84-8.41,8.44-1.82,1.7-3.35,1.64-5.22-.11-1.56-1.47-2.91-3.16-4.38-4.73-2.26-2.42-4.52-4.83-6.82-7.21-.3-.31-1.13-.66-1.22-.55-.38,.43-.78,1.02-.78,1.56-.07,5.48-.09,10.95-.07,16.43,.01,3.73,.54,4.44,4.13,4.5,6.8,.12,13.61,0,20.41,.06,1.65,.01,2.41-.47,2.39-2.24-.07-5.3-.03-10.59-.03-16.14Z"/>
  <path class="cls-1" d="M154.69,162.4c-5.79,.27-11.58,.51-17.37,.82-2.47,.14-4.65-1.43-4.67-3.92-.09-8.82-.11-17.65,0-26.47,.04-3.23,1.93-4.5,5.24-3.65,1.3,.34,2.12,.02,3.19-.61,3-1.78,3.64-1.66,6.01,.68,2.25,2.23,4.47,4.48,6.62,6.8,1.2,1.29,2.2,1.89,3.64,.25,4.39-4.98,8.85-9.88,13.29-14.81,1.55-1.72,3.01-3.56,4.71-5.12,2.15-1.97,3.45-2.11,4.77-1,1.97,1.66,2.21,3.27,.62,5.64-1.01,1.51-2.18,2.91-3.36,4.29-.97,1.13-2.03,2.21-3.13,3.22-1.25,1.16-1.76,2.2-.55,3.82,.75,.99,.57,2.32,.45,3.71-.4,4.63-.26,9.3-.3,13.96-.03,2.83,.06,5.66-.02,8.49-.1,3.39-.76,4.09-4.13,4.15-4.99,.08-9.99,.02-14.98,.02,0-.09,0-.18-.01-.27Zm11.99-25.07c-3.36,3.3-6.04,6.02-8.82,8.64-1.94,1.83-2.55,1.82-4.74,.3-.54-.38-1.03-.84-1.49-1.32-3.84-3.97-7.67-7.94-11.88-12.31,0,7.16,.02,13.81-.01,20.46,0,1.57,.33,2.48,2.21,2.46,7.5-.08,14.99-.08,22.49-.03,1.8,.01,2.29-.76,2.27-2.4-.05-4.98-.02-9.97-.02-15.8Z"/>
  <path class="cls-1" d="M242.23,126.35c14.98,0,29.96,0,44.95,0,1.17,0,2.33,.02,3.5,.01,1.49,0,2.82,.61,2.96,2.08,.11,1.18-.27,2.65-.96,3.59-.59,.79-1.92,1.16-2.99,1.42-.94,.23-1.99,.05-2.98,.05-29.96,0-59.93,0-89.89,0-1.33,0-2.69,.13-3.99-.11-1.99-.36-3.45-2.57-3.17-4.43,.26-1.67,1.3-2.44,3.65-2.57,1.16-.07,2.33-.02,3.5-.02,15.15,0,30.3,0,45.45,0v-.02Z"/>
  <path class="cls-1" d="M225.64,248.58c-10.14,0-20.27,0-30.41,0-1.68,0-3.51,.21-4.48-1.45-.61-1.05-1.04-2.44-.92-3.62,.15-1.45,1.46-2.09,2.95-2.1,1,0,1.99-.02,2.99-.02,19.61,0,39.22,0,58.83-.01,1.16,0,2.34-.08,3.49,.06,1.8,.22,3.34,2.14,3.2,3.79-.14,1.55-1.59,3.1-3.23,3.29-.98,.12-1.99,.04-2.99,.04-9.8,0-19.61,0-29.41,0v.02Z"/>
  <path class="cls-1" d="M224.65,190.63c-9.64,0-19.28,0-28.92,0-.83,0-1.66,.05-2.49,0-2.33-.15-3.37-.93-3.61-2.62-.26-1.84,1.25-4,3.22-4.39,.96-.19,1.99-.09,2.98-.09,19.61,0,39.22-.03,58.83,.03,1.6,0,3.37,.22,4.75,.93,.98,.5,2.17,2.21,1.95,3.02-.32,1.19-1.68,2.34-2.87,2.97-.92,.48-2.28,.16-3.44,.16-10.14,0-20.27,0-30.41,0h0Z"/>
  <path class="cls-1" d="M215.19,267.98c-7.14,0-14.29-.01-21.43,0-2.11,0-3.73-1.03-4.1-2.75-.39-1.79,1.02-4.11,2.95-4.62,.78-.21,1.65-.12,2.49-.12,13.32,0,26.64,0,39.96,.01,.99,0,2.03-.06,2.96,.21,1.73,.5,2.96,2.58,2.74,4.28-.23,1.73-1.22,2.59-3.58,2.61-7.32,.06-14.65,.02-21.98,.02,0,.12,0,.23,0,.35Z"/>
  <path class="cls-1" d="M215.82,145.42c6.97,0,13.94-.03,20.91,.02,2.77,.02,3.79,.77,4.05,2.64,.26,1.9-1.19,3.93-3.21,4.38-.64,.14-1.32,.08-1.98,.08-13.61,.01-27.21,0-40.82,.07-2.01,.01-3.59-.46-4.67-2.17-1.11-1.76-.55-3.65,1.47-4.39,1.2-.44,2.56-.58,3.85-.59,6.8-.05,13.61-.03,20.41-.03h0Z"/>
  <path class="cls-1" d="M215.19,210.55c-6.17,0-12.33,0-18.5,0-1,0-2.01,.06-3-.02-2.19-.19-4.09-1.94-4.04-3.64,.05-1.68,1.97-3.39,4.2-3.45,3.66-.11,7.33-.05,11-.06,9.83,0,19.67,0,29.5-.01,1.17,0,2.34-.03,3.5,.02,1.75,.09,2.71,1.06,2.95,2.79,.27,1.98-.35,3.32-2.2,3.89-1.24,.38-2.6,.44-3.91,.45-6.5,.04-13,.02-19.5,.02h0Z"/>
  <path class="cls-1" d="M354.55,216.39c3.16,0,6.32-.06,9.48,.02,2.8,.07,3.6,.77,3.64,3.53,.08,6.49,.12,12.98-.05,19.47-.09,3.6-3.03,5.15-5.71,3.18-.67-.49-1.22-1.55-1.29-2.39-.4-5.11-.67-10.22-.92-15.34-.16-3.24-.42-3.59-3.56-4.2-1.77-.35-3.5-.86-5.28-1.13-2.42-.38-2.98,.09-3,2.5-.05,5.16-.01,10.32-.02,15.47,0,1.16,.05,2.34-.08,3.49-.2,1.78-1.4,2.53-3.1,2.6-1.76,.08-2.79-.74-3.09-2.53-1.13-6.74-.94-13.54-.84-20.33,.05-3,1.61-4.24,4.83-4.26,2.99-.03,5.99,0,8.98,0v-.07Z"/>
  <path class="cls-1" d="M384.61,265.03c0-3-.07-5.99,.02-8.99,.09-2.87,.69-3.5,3.56-3.56,4.49-.09,8.99-.08,13.48-.03,2.57,.03,3.54,.91,3.95,3.38,.11,.65,.06,1.33,.06,1.99,0,4.83,.05,9.65-.02,14.48-.06,4.11-1.19,5.2-5.41,5.25-3.99,.05-7.99,.07-11.98-.03-2.9-.07-3.53-.7-3.62-3.51-.09-2.99-.02-5.99-.02-8.99h-.02Zm14.08-7.52c-2.22,.1-4.82,.22-7.41,.34-.18,2.43-.36,4.85-.54,7.28-.02,.33,0,.66,0,.99,.13,6.12-1.05,5.27,5.68,5.38,1.75,.03,2.32-.7,2.29-2.36-.06-3.76-.02-7.51-.02-11.64Z"/>
  <path class="cls-1" d="M323.67,229.61c0,2.66,.06,5.33-.02,7.99-.12,4.28-.79,4.94-4.9,4.95-4.16,.01-8.32,.03-12.48-.08-2.94-.08-3.6-.68-3.64-3.48-.08-6.32-.02-12.65-.04-18.97,0-1.5,.36-2.55,2.16-2.64,4.62-.24,9.22-.69,13.84-.81,3.75-.1,4.96,1.24,5.06,5.05,.06,2.66,.01,5.32,0,7.99Zm-15.01,.44h0c0,1.33-.02,2.66,0,3.99,.06,3.34,.5,3.74,3.76,3.26,1.3-.19,2.63-.41,3.83-.89,.57-.23,1.22-1.1,1.24-1.7,.12-3.49,.1-6.98,.03-10.47-.01-.54-.52-1.53-.82-1.54-2.46-.08-4.93,.02-7.4,.07-.21,1.6-.46,3.19-.62,4.79-.08,.82-.01,1.66-.01,2.49Z"/>
  <path class="cls-1" d="M302.6,264.75c0-2.99-.08-5.99,.03-8.97,.09-2.53,.79-3.23,3.32-3.28,4.65-.09,9.31,.07,13.96-.09,2.12-.07,3.02,1.01,3.55,2.7,.24,.77,.22,1.63,.23,2.46,.02,4.99,.03,9.97,0,14.96,0,.97-.14,1.98-.43,2.91-.42,1.35-1.22,2.22-2.88,2.19-4.82-.09-9.64,.02-14.46-.07-2.53-.05-3.22-.78-3.3-3.31-.1-3.15-.02-6.31-.02-9.47h.02Zm6.09-.53h.01c0,1.83,0,3.66,0,5.49,0,1.23,.58,1.84,1.81,1.79,2.14-.09,4.29-.19,6.43-.28,.19-1.88,.41-3.76,.55-5.64,.08-.99,.04-2,.02-2.99-.1-5.44,1.21-5.07-4.93-5.09-3.94-.02-3.94-.2-3.89,3.73,.01,1,0,2,0,3Z"/>
  <path class="cls-1" d="M405.65,231.31c0,2.16,.06,4.33-.01,6.48-.11,3.31-1.27,4.61-4.41,4.69-4.32,.11-8.65,.1-12.97,0-2.92-.07-3.57-.69-3.61-3.51-.09-5.99-.09-11.97-.02-17.96,.04-2.93,.64-3.53,3.51-3.59,4.65-.1,9.31,0,13.97-.07,1.87-.03,2.64,.72,2.77,2.61,.27,3.78,.75,7.54,1.14,11.3l-.36,.04Zm-6.09-1.81c-.05-7.76-.05-7.74-7.05-7.02-1.22,.12-1.79,.59-1.78,1.82,.02,2.82,.03,5.63,0,8.45-.04,3.91-.15,3.77,3.83,3.75,5.6-.02,4.97,.76,5-5,0-.66,0-1.33,0-1.99Z"/>
  <path class="cls-1" d="M215.74,59.32c-.12,2.47-1.77,3.48-3.13,4.62-1.26,1.06-2.58,.58-3.53-.5-.95-1.08-1.92-2.28-2.41-3.6-.26-.7,.31-1.89,.82-2.65,.72-1.07,1.68-.46,2.64-.06,1.35,.57,2.8,.89,4.18,1.39,.54,.19,1.02,.56,1.44,.79Z"/>
</svg>