<?xml version="1.0" encoding="UTF-8"?>
<svg id="OBJECTS" xmlns="http://www.w3.org/2000/svg" viewBox="0 0 291.36 291.36">
  <defs>
    <style>
      .cls-1 {
        fill: #0099ba;
      }

      .cls-2 {
        fill: #004fb0;
      }
    </style>
  </defs>
  <g>
    <g>
      <path class="cls-2" d="M94.38,184.42h-22.89c-1.1,0-2-.9-2-2v-63.76c0-1.1,.9-2,2-2h22.89c1.1,0,2,.9,2,2v63.76c0,1.1-.9,2-2,2Zm-20.89-4h18.89v-59.76h-18.89v59.76Z"/>
      <path class="cls-2" d="M97.76,120.67h-29.65c-.94,0-1.76-.66-1.96-1.59l-2.65-11.51c-.12-.59,.02-1.2,.4-1.67,.38-.47,.95-.74,1.55-.74h34.96c.6,0,1.17,.27,1.55,.74,.38,.47,.53,1.08,.4,1.67l-2.66,11.51c-.2,.92-1.01,1.59-1.96,1.59Zm-28.03-4h26.41l1.81-8.51h-30.02l1.81,8.51Z"/>
      <path class="cls-2" d="M100.41,195.93h-34.96c-.6,0-1.17-.27-1.55-.74-.38-.47-.53-1.08-.4-1.67l2.65-11.51c.2-.92,1.01-1.58,1.96-1.58h29.65c.94,0,1.76,.66,1.96,1.58l2.66,11.51c.12,.59-.02,1.21-.4,1.67-.38,.47-.95,.74-1.55,.74Zm-32.49-3h30.02l-1.81-8.51h-26.41l-1.81,8.51Z"/>
    </g>
    <g>
      <path class="cls-2" d="M220.73,184.42h-22.89c-1.1,0-2-.9-2-2v-63.76c0-1.1,.9-2,2-2h22.89c1.1,0,2,.9,2,2v63.76c0,1.1-.9,2-2,2Zm-20.89-4h18.89v-59.76h-18.89v59.76Z"/>
      <path class="cls-2" d="M224.11,120.67h-29.65c-.94,0-1.76-.66-1.96-1.59l-2.65-11.51c-.13-.59,.02-1.2,.4-1.67,.38-.47,.95-.74,1.55-.74h34.96c.6,0,1.17,.27,1.55,.74,.38,.47,.53,1.08,.4,1.67l-2.66,11.51c-.2,.92-1.01,1.59-1.96,1.59Zm-28.03-4h26.41l1.81-8.51h-30.02l1.81,8.51Z"/>
      <path class="cls-2" d="M226.77,195.93h-34.96c-.6,0-1.17-.27-1.55-.74-.38-.47-.53-1.08-.4-1.67l2.65-11.51c.2-.92,1.01-1.58,1.96-1.58h29.65c.94,0,1.76,.66,1.96,1.58l2.66,11.51c.13,.59-.02,1.21-.4,1.67-.38,.47-.95,.74-1.55,.74Zm-32.49-3h30.02l-1.81-8.51h-26.41l-1.81,8.51Z"/>
    </g>
    <path class="cls-2" d="M146.11,86.23c-7.14,0-12.95-5.81-12.95-12.95s5.81-12.95,12.95-12.95,12.95,5.81,12.95,12.95-5.81,12.95-12.95,12.95Zm0-21.91c-4.94,0-8.95,4.02-8.95,8.95s4.02,8.95,8.95,8.95,8.95-4.02,8.95-8.95-4.02-8.95-8.95-8.95Z"/>
    <path class="cls-2" d="M242.59,108.16H49.64c-1.1,0-2-.9-2-2v-12c0-.77,.44-1.47,1.14-1.81l96.47-45.95c.54-.26,1.18-.26,1.72,0l96.48,45.95c.7,.33,1.14,1.03,1.14,1.81v12c0,1.1-.9,2-2,2Zm-190.95-4H240.59v-8.74l-94.47-45L51.64,95.42v8.74Z"/>
    <path class="cls-2" d="M242.59,96.16H49.64c-1.1,0-2-.9-2-2s.9-2,2-2H242.59c1.1,0,2,.9,2,2s-.9,2-2,2Z"/>
    <path class="cls-2" d="M200.03,221.52h-16.8c-11.49,0-14.85,7.33-15.83,11.69-.34,1.52-1.64,2.58-3.17,2.58h-36.24c-1.52,0-2.83-1.06-3.17-2.58-.98-4.37-4.34-11.69-15.83-11.69H50.04c-2.16,0-3.92-1.76-3.92-3.92s1.76-3.92,3.92-3.92H117.13c6.42,0,12.27,6.48,12.27,13.59,0,1.1,.9,2,2,2h29.42c1.1,0,2-.9,2-2,0-7.11,5.85-13.59,12.27-13.59h24.94v-4h-24.94c-8.04,0-15.17,7.08-16.16,15.59h-25.65c-.98-8.51-8.11-15.59-16.16-15.59H50.04c-.3,0-.59,.02-.88,.05-.01,0-.02,0-.03,0-.28,.03-.56,.08-.83,.14h0c-3.53,.8-6.18,3.95-6.18,7.72,0,4.37,3.55,7.92,7.92,7.92h58.95c6.64,0,10.65,2.88,11.93,8.57,.75,3.36,3.66,5.71,7.07,5.71h36.24c3.41,0,6.32-2.35,7.07-5.71,1.28-5.68,5.29-8.57,11.93-8.57h16.8v-4Z"/>
    <path class="cls-2" d="M243.92,209.88h0c-.27-.06-.55-.11-.83-.14-.01,0-.02,0-.03,0-.29-.03-.58-.05-.88-.05h-19.85v4h19.85c2.16,0,3.92,1.76,3.92,3.92s-1.76,3.92-3.92,3.92h-19.85v4h19.85c4.37,0,7.92-3.55,7.92-7.92,0-3.77-2.65-6.93-6.18-7.72Z"/>
    <path class="cls-2" d="M82.93,166.58c-1.1,0-2-.9-2-2v-28.08c0-1.1,.9-2,2-2s2,.9,2,2v28.08c0,1.1-.9,2-2,2Z"/>
    <path class="cls-2" d="M209.29,166.58c-1.1,0-2-.9-2-2v-28.08c0-1.1,.9-2,2-2s2,.9,2,2v28.08c0,1.1-.9,2-2,2Z"/>
  </g>
  <g>
    <path class="cls-1" d="M220.32,239.43c-.53,0-1.05-.21-1.43-.6l-7.71-7.91-7.71,7.91c-.57,.58-1.43,.76-2.19,.46-.75-.31-1.25-1.04-1.25-1.85v-30.38c0-1.1,.9-2,2-2h18.29c1.1,0,2,.9,2,2v30.38c0,.81-.49,1.55-1.25,1.85-.24,.1-.5,.15-.75,.15Zm-172.02-29.55c.56-.13,1.14-.2,1.74-.2h2.44l-3.85-10.64c-.18-.49-.11-1.01,.19-1.44,.3-.43,.77-.67,1.29-.67H124.31c10.92,0,19.8,8.88,19.8,19.8,0,1.1,.9,2,2,2s2-.9,2-2c0-10.92,8.88-19.8,19.8-19.8h74.19c.52,0,.99,.24,1.29,.67,.3,.43,.37,.95,.19,1.44l-3.85,10.64h2.44c.6,0,1.18,.07,1.74,.2l3.43-9.48c.62-1.71,.36-3.61-.68-5.1-1.04-1.49-2.75-2.37-4.56-2.37h-74.19c-9.73,0-18.12,5.87-21.8,14.25-3.69-8.38-12.07-14.25-21.8-14.25H50.12c-1.81,0-3.52,.89-4.56,2.37-1.04,1.49-1.3,3.39-.68,5.1l3.43,9.48Zm162.87,16.17c.54,0,1.06,.22,1.43,.6l5.71,5.86v-23.46h-14.29v23.46l5.71-5.86c.38-.39,.89-.6,1.43-.6Z"/>
    <g>
      <path class="cls-1" d="M182.07,177.41h-35.96c-1.02,0-1.86-.83-1.86-1.86v-42.45c0-5.19,4.23-9.42,9.42-9.42h28.39c1.02,0,1.86,.83,1.86,1.86v50.02c0,1.02-.83,1.86-1.86,1.86Zm-34.1-3.71h32.25v-46.31h-26.54c-3.15,0-5.71,2.56-5.71,5.71v40.6Z"/>
      <path class="cls-1" d="M146.11,177.41h-35.96c-1.02,0-1.86-.83-1.86-1.86v-50.02c0-1.02,.83-1.86,1.86-1.86h28.39c5.19,0,9.42,4.23,9.42,9.42v42.45c0,1.02-.83,1.86-1.86,1.86Zm-34.1-3.71h32.25v-40.6c0-3.15-2.56-5.71-5.71-5.71h-26.54v46.31Z"/>
    </g>
    <g>
      <path class="cls-1" d="M145.58,46.29c-.1,.03-.2,.06-.29,.1,.1-.04,.19-.07,.29-.1Z"/>
      <path class="cls-1" d="M146.06,46.21c-.13,0-.25,.02-.37,.04,.12-.03,.25-.04,.37-.04Z"/>
      <path class="cls-1" d="M146.93,46.39c-.09-.04-.19-.07-.29-.1,.1,.03,.2,.06,.29,.1Z"/>
      <path class="cls-1" d="M146.53,46.25c-.12-.03-.25-.04-.37-.04,.13,0,.25,.01,.37,.04Z"/>
    </g>
  </g>
</svg>