<?xml version="1.0" encoding="UTF-8"?>
<svg id="Réteg_1" data-name="Réteg 1" xmlns="http://www.w3.org/2000/svg" xmlns:xlink="http://www.w3.org/1999/xlink" viewBox="0 0 989.43 575.07">
  <defs>
    <style>
      .cls-1 {
        fill: #fff;
      }

      .cls-2 {
        clip-path: url(#clippath);
      }

      .cls-3 {
        fill: none;
      }
    </style>
    <clipPath id="clippath">
      <rect class="cls-3" x="52.71" y="30.64" width="884.01" height="513.79"/>
    </clipPath>
  </defs>
  <g class="cls-2">
    <path class="cls-1" d="M454.75,204.52c0-6.08,15.56-14.93,39.96-14.93s39.96,8.86,39.96,14.93-15.56,14.96-39.96,14.96-39.96-8.86-39.96-14.96m-349.46-9.01c94.27-29.4,320.7-114.6,382.5-138l399.82,136.51-392.9,170.46L235.24,251.89l219.09-28.9c9.56,5.87,23.84,9.51,40.38,9.51,30.21,0,52.98-12.03,52.98-27.98s-22.77-27.96-52.98-27.96c-26.04,0-46.53,8.96-51.69,21.64l-254.2,33.54-83.53-36.24ZM711.07,499.75c0,10.27-8.33,18.63-18.63,18.63H325.11c-10.24,0-18.6-8.36-18.6-18.63v-188.54l183.04,79.41c1.62,.71,3.41,1.07,5.16,1.07s3.54-.37,5.19-1.07l211.18-91.62v200.75Zm-544.84-57.35l13.44-79.52c.76-4.56-.94-9.2-4.51-12.16-2.2-1.86-3.48-4.56-3.48-7.44,0-5.34,4.35-9.69,9.69-9.69s9.69,4.35,9.69,9.69c0,2.99-1.31,5.11-2.38,6.37-2.49,2.83-3.62,6.6-3.09,10.32l11.4,82.43h-30.76Zm7.68-134.07c-16.14,3.46-28.27,17.79-28.27,34.95,0,7.91,2.59,15.46,7.26,21.62l-14.91,88.37c-.66,3.77,.42,7.65,2.88,10.56,2.49,2.93,6.13,4.61,9.96,4.61h61.1c3.77,0,7.34-1.62,9.83-4.45,2.46-2.83,3.59-6.6,3.07-10.35l-12.71-92.12c3.28-5.48,5.03-11.79,5.03-18.24,0-12.89-6.89-24.18-17.19-30.47v-47.82l80.49,34.93v199.83c0,24.65,20.04,44.67,44.67,44.67h367.33c24.65,0,44.67-20.02,44.67-44.67v-212.04l191.76-83.19c4.93-2.15,8.04-7.1,7.83-12.5-.24-5.37-3.72-10.06-8.8-11.79L491.77,31.33c-2.88-.97-6-.92-8.83,.16C333.63,88.03,88.41,178.16,65.65,179.52c-6.13,.05-11.42,4.38-12.65,10.38-1.26,6.05,1.89,12.16,7.57,14.62l113.34,49.15v54.65Z"/>
  </g>
</svg>