<?xml version="1.0" encoding="UTF-8"?>
<svg id="OBJECTS" xmlns="http://www.w3.org/2000/svg" viewBox="0 0 600 500">
  <defs>
    <style>
      .cls-1 {
        fill: #0099ba;
      }
    </style>
  </defs>
  <path class="cls-1" d="M387.32,214.23c-.47,21.11-1.45,39.83-5.67,58.29-5.58,24.41-17.78,45-35.18,62.68-12.48,12.68-26.99,22.61-42.55,31.13-3.14,1.72-5.83,1.76-8.9,.08-26.08-14.33-48.68-32.45-64.16-58.42-6.18-10.37-10.58-21.43-13.33-33.19-6.51-27.84-7.22-56.01-5.15-84.36,.3-4.06,1.59-5.17,6.38-6.25,8.59-1.95,17.21-3.8,25.73-6.04,17.64-4.63,34.17-12.04,50.05-20.91,3.32-1.85,5.92-1.86,9.22-.01,23.58,13.18,48.81,21.81,75.32,26.8,6.32,1.19,7.1,2.14,7.38,8.54,.34,7.98,.63,15.96,.85,21.65Zm-167.64-22.38c-.15,.6-.34,1.08-.37,1.56-1.61,24.32-.87,48.5,3.76,72.53,3.82,19.85,11.96,37.58,24.62,53.31,11.75,14.6,26.4,25.71,42.15,35.52,9.56,5.95,9.53,5.84,19.21-.07,17.49-10.67,33.01-23.51,45.37-40.02,15.18-20.27,21.5-43.58,24.01-68.29,1.77-17.43,1.38-34.88,.82-52.34-.03-.79-.27-1.58-.44-2.53-2.41-.53-4.66-1.07-6.92-1.52-23.95-4.82-46.78-12.84-68.34-24.31-3.33-1.77-5.7-1.99-9.04-.06-15.33,8.88-31.75,15.22-48.87,19.71-8.49,2.23-17.03,4.28-25.95,6.51Z"/>
  <path class="cls-1" d="M133.18,313.18c-1.54,6.57-5.21,10.99-11.51,12.89-7.11,2.15-15.03-1.32-18.11-7.84-3.23-6.84-1.23-15,4.69-19.15,6.43-4.51,14.78-3.89,20.07,1.52,.93,.95,1.71,2.04,2.51,3.1,2.97,3.95,6.74,4.11,10.29,.42,4.15-4.31,8.35-8.59,12.46-12.95,1.81-1.92,3.77-2.98,6.53-2.95,11.65,.1,23.29,.03,34.94,.04,.81,0,1.61,.18,2.79,.33v6.36c-1.75,.09-3.5,.24-5.26,.25-9.82,.02-19.64,.08-29.45-.07-2.73-.04-4.73,.76-6.57,2.73-3.4,3.65-7.13,7-10.43,10.74-2.74,3.09-5.77,4.88-9.99,4.32-.8-.1-1.64,.14-2.98,.27Zm-15.95-10.46c-4.58,0-8.62,3.97-8.68,8.52-.06,4.67,4.18,8.66,9.12,8.59,4.65-.06,8.4-4.02,8.31-8.77-.09-4.66-3.97-8.36-8.76-8.35Z"/>
  <path class="cls-1" d="M124.97,215.57c1.75,0,3.74,.17,5.69-.03,4.8-.51,8.65,1.07,12.05,4.48,2.81,2.82,6.23,5.05,8.93,7.96,3.25,3.51,6.97,4.43,11.59,4.25,8.14-.32,16.3-.13,24.45-.14,1.46,0,2.93,0,4.75,0v6.74c-1.75,0-3.36,0-4.97,0-9.48-.02-18.97-.16-28.44,.01-3.41,.06-6.08-.95-8.56-3.19-3.71-3.34-7.79-6.27-11.32-9.78-3.09-3.07-6.47-4.36-10.71-3.86-1.3,.15-2.63,.02-3.76,.02-6.43,9.97-12.7,13.11-20.48,10.44-6.93-2.38-11.13-8.55-10.66-15.68,.45-7,5.41-12.65,12.19-13.89,8.54-1.57,14.5,2.25,19.26,12.66Zm-6.91,2.45c.01-4.66-4.32-8.88-9.08-8.84-4.62,.03-8.8,4.02-8.88,8.47-.09,4.72,4.13,8.75,9.1,8.69,4.89-.05,8.85-3.77,8.86-8.32Z"/>
  <path class="cls-1" d="M148.65,266.84c-4.46,9.48-11.31,13.63-19.1,12.1-6.76-1.33-11.65-7-12.1-14.03-.46-7.24,3.79-13.2,10.95-15.35,7.99-2.39,13.84,.62,20.05,10.67h45.71v6.6h-45.51Zm-7.11-2.76c.11-4.61-4.21-8.8-9.04-8.76-4.52,.04-8.72,4.17-8.71,8.57,0,4.61,4.37,8.86,9.07,8.83,4.44-.03,8.57-4.14,8.68-8.64Z"/>
  <path class="cls-1" d="M157.4,182.36c-3.94,5.06-8.24,8.09-14.34,7.87-7.94-.29-14.18-5.9-15.14-13.84-.85-7.06,4.76-14.7,11.96-16.28,7.76-1.71,15.95,2.26,17.88,9.78,1.67,6.49,7.04,8.89,11.32,12.56,.92,.79,2.86,.49,4.34,.5,6.48,.05,12.97,.03,19.45,.05,.31,0,.62,.18,1.48,.44,.07,1.53,.16,3.26,.26,5.36-1.52,.2-2.78,.49-4.04,.51-5.82,.06-11.65-.18-17.46,.13-4.25,.22-7.8-.81-10.95-3.64-1.33-1.2-2.91-2.12-4.76-3.44Zm-13.4-16.07c-4.57-.37-8.89,3.36-9.21,7.95-.34,4.84,3.39,9.15,8.24,9.52,4.41,.34,8.8-3.43,9.3-7.98,.5-4.51-3.53-9.11-8.33-9.49Z"/>
  <path class="cls-1" d="M440.5,251.57c-1,2.87-1.56,6.67-3.48,9.56-3.99,6.01-12.47,5.03-15.28-1.62-2.35-5.55-2.31-11.4-.16-17.05,1.44-3.78,4.4-5.74,8.5-5.81,4.21-.07,6.99,2.1,8.34,5.89,.93,2.63,1.29,5.46,2.09,9.02Zm-5.5-.47c-.51-2.53-.67-5.07-1.61-7.28-.52-1.24-2.38-2.72-3.54-2.65-1.19,.08-2.8,1.73-3.28,3.04-1.7,4.65-1.36,9.44,.31,14.04,.38,1.05,1.76,2.45,2.66,2.44,1.21-.02,3.03-.99,3.48-2.03,1.02-2.36,1.37-5.01,1.99-7.57Z"/>
  <path class="cls-1" d="M482.89,250.83c-.61,2.64-1,5.8-2.08,8.71-1.34,3.63-4.36,5.36-8.24,5.34-3.87-.03-6.71-1.8-8.22-5.41-2.35-5.63-2.34-11.37-.19-17.02,1.47-3.86,4.98-5.9,9.06-5.73,3.95,.16,6.82,2.19,8.12,6.24,.76,2.34,.97,4.86,1.54,7.88Zm-15.29,.14c.65,2.6,.93,5.49,2.1,7.94,1.33,2.77,4.4,2.66,5.79-.1,2.59-5.17,2.69-10.61,.16-15.8-1.49-3.07-4.67-3.02-6.08,.06-1.07,2.34-1.3,5.06-1.97,7.9Z"/>
  <path class="cls-1" d="M524.85,251.25c-.54,2.45-.86,5.48-1.9,8.23-1.35,3.58-4.32,5.47-8.19,5.46-3.86-.01-6.75-1.92-8.18-5.5-2.25-5.63-2.24-11.42-.07-17.05,1.68-4.35,4.83-6.04,9.47-5.7,4.06,.3,6.47,2.23,7.65,6.64,.64,2.38,.77,4.91,1.21,7.93Zm-14.96-1.09c.6,2.77,.84,5.64,1.87,8.19,1.22,3.01,3.9,3.08,5.75,.5,2.3-3.23,2.47-12.64,.28-15.86-1.86-2.73-4.82-2.69-6.23,.37-.94,2.04-1.12,4.43-1.67,6.81Z"/>
  <path class="cls-1" d="M412.57,264.22h-4.93v-21.66c-2.2,.63-3.71,1.07-5.97,1.72,.1-1.6-.24-3.5,.31-3.8,3.1-1.72,6.05-4.25,10.59-3.05v26.8Z"/>
  <path class="cls-1" d="M455.11,264.3h-4.97c0-3.73,0-7.17,0-10.61s0-6.89,0-10.88c-2.18,.56-3.69,.95-5.81,1.5,0-1.47-.53-3.56,.09-3.99,2.99-2.07,6.25-3.82,10.69-2.92v26.92Z"/>
  <path class="cls-1" d="M492.12,242.58c-2.16,.67-3.54,1.09-5.54,1.71,0-1.55-.48-3.43,.08-3.82,2.95-2.05,6.01-4.23,9.99-3.24,1.33,3.86,1.64,18.53,.52,26.9h-5.05v-21.55Z"/>
  <path class="cls-1" d="M271.82,242.87c0-4.84-.04-9.13,0-13.41,.14-13.15,6.87-22.84,18.8-27.17,17.42-6.31,35.87,6.59,35.95,25.15,.02,4.81,0,9.63,0,15.15,2.46,.08,4.71,.13,6.95,.22,5.03,.21,7.69,2.72,7.72,7.77,.09,16.3,.11,32.6,.03,48.89-.03,5.59-2.73,8.24-8.36,8.26-22.12,.08-44.24,.1-66.36,.03-6.07-.02-8.72-2.88-8.73-8.98-.02-15.63,0-31.27,.04-46.9,.01-6.98,1.94-8.92,8.82-9.01,1.49-.02,2.98,0,5.13,0Zm-7.08,57.63h69.42v-50.71h-69.42v50.71Zm54.72-57.92c0-5.64,.25-10.64-.05-15.61-.62-10.32-8.01-17.62-18.64-18.79-8.99-.99-18.12,5.07-20.52,14.02-1.78,6.64-.85,13.42-.77,20.37h39.99Z"/>
  <path class="cls-1" d="M292.68,284.78c.63-3.6,.09-5.7-1.9-7.76-3.58-3.74-3.84-8.23-1.31-12.37,2.41-3.93,7.54-6.24,12.06-5.38,10.26,1.95,12.78,13.09,6.82,18.52-2.58,2.35-1.69,5.2-1.81,7.91-.13,3.05-1.6,5.01-4.34,6.07-2.66,1.03-6.12,.37-7.69-1.96-1.13-1.67-1.44-3.88-1.84-5.03Zm13.75-14.08c-.51-3.11-2.02-5.2-4.61-6.39-2.46-1.13-5.15-.24-7.06,2.15-1.79,2.23-2.13,4.73-.19,6.82,2.55,2.75,2.72,5.92,2.62,9.29-.02,.83-.19,1.77,.13,2.47,.42,.92,1.26,1.66,1.92,2.48,.91-.78,2.06-1.4,2.64-2.38,.45-.76,.3-1.95,.23-2.93-.21-3.27,.21-6.25,2.83-8.64,.79-.72,1.07-2,1.5-2.84Z"/>
</svg>